<?xml version="1.0" encoding="UTF-8" standalone="no"?>
<svg
   xmlns:dc="http://purl.org/dc/elements/1.1/"
   xmlns:cc="http://creativecommons.org/ns#"
   xmlns:rdf="http://www.w3.org/1999/02/22-rdf-syntax-ns#"
   xmlns:svg="http://www.w3.org/2000/svg"
   xmlns="http://www.w3.org/2000/svg"
   xmlns:sodipodi="http://sodipodi.sourceforge.net/DTD/sodipodi-0.dtd"
   xmlns:inkscape="http://www.inkscape.org/namespaces/inkscape"
   viewBox="0 0 524.89 112.42"
   version="1.1"
   id="svg22"
   sodipodi:docname="209_kuestenschmiede-logo-zweizeilig.svg"
   inkscape:version="0.92.2 5c3e80d, 2017-08-06">
  <metadata
     id="metadata26">
    <rdf:RDF>
      <cc:Work
         rdf:about="">
        <dc:format>image/svg+xml</dc:format>
        <dc:type
           rdf:resource="http://purl.org/dc/dcmitype/StillImage" />
        <dc:title></dc:title>
      </cc:Work>
    </rdf:RDF>
  </metadata>
  <sodipodi:namedview
     pagecolor="#ffffff"
     bordercolor="#666666"
     borderopacity="1"
     objecttolerance="10"
     gridtolerance="10"
     guidetolerance="10"
     inkscape:pageopacity="0"
     inkscape:pageshadow="2"
     inkscape:window-width="1920"
     inkscape:window-height="1020"
     id="namedview24"
     showgrid="false"
     inkscape:zoom="0.75444377"
     inkscape:cx="395.74983"
     inkscape:cy="-241.45585"
     inkscape:window-x="0"
     inkscape:window-y="31"
     inkscape:window-maximized="1"
     inkscape:current-layer="svg22" />
  <defs
     id="defs4">
    <clipPath
       id="clip-path"
       transform="translate(0 0)">
      <rect
         id="SVGID"
         class="cls-1"
         width="524.89"
         height="112.42" />
    </clipPath>
  </defs>
  <path
     inkscape:connector-curvature="0"
     id="path6"
     d="m 41.71,54.26 a 43.55,43.55 0 0 1 22,-34.88 C 43.21,27.39 35.11,38 32,44 28.63,33.76 20.18,22.15 3.2,9.72 c 0,0 35.4,37.7 14.11,77.06 0,0 13,-9.54 16,-25.08 22.72,8.41 11.78,27 11.78,27 23,-21.68 -3.35,-34.4 -3.35,-34.4"
     class="cls-3"
     style="fill:#103a5d;fill-opacity:1" />
  <path
     inkscape:connector-curvature="0"
     id="path8"
     d="m 56.12,54.62 c 0,0 2.88,-0.47 11.48,1.18 0,0 7.17,-24.51 33,-22.38 0,0 -31.57,-11.55 -44.49,21.21"
     class="cls-4"
     style="fill:#0d99d6;fill-opacity:1" />
  <path
     inkscape:connector-curvature="0"
     id="path10"
     d="m 81,70.77 c -2.92,-8 -12.33,-12.54 -24.3,-13 5.89,1.64 10.31,5 12.05,9.7 C 72.6,77.81 62.12,91.06 45.38,97 28.64,102.94 12,99.42 8.16,89 6.42,84.3 7.67,79 11.13,74 2.25,81.92 -2,91.38 0.92,99.33 c 4.73,12.89 26.51,17 48.63,9.07 C 71.67,100.47 85.78,83.67 81,70.77"
     class="cls-4"
     style="fill:#0d99d6;fill-opacity:1" />
  <path
     inkscape:connector-curvature="0"
     id="path12"
     d="m 94.61,12.35 a 12.54,12.54 0 0 1 -25.07,0 12.54,12.54 0 0 1 25.07,0"
     class="cls-5"
     style="fill:#ffcd00;fill-opacity:1" />
  <path
     inkscape:connector-curvature="0"
     id="path14"
     d="m 339.8,74.3 a 31.25,31.25 0 0 0 -5.53,0.38 c -0.25,0 -0.36,0.08 -0.36,0.36 v 13.85 c 0,0.25 0.11,0.36 0.36,0.36 h 1.29 c 0.22,0 0.33,-0.11 0.33,-0.36 V 76 h 4.25 c 2.71,0 3.75,0.25 3.75,4.49 v 8.35 c 0,0.25 0.11,0.36 0.36,0.36 h 1.23 c 0.25,0 0.41,-0.11 0.41,-0.36 v -8.3 c 0,-5.67 -1.56,-6.24 -6.08,-6.24 M 328.26,76 v 11.44 a 34.72,34.72 0 0 1 -3.75,0.19 c -3.78,0 -4.22,-1.15 -4.22,-5.78 0,-4.63 0.44,-5.81 4,-5.81 z m -3.94,-1.75 c -5,0 -6,1.48 -6,7.59 0,6.11 1,7.5 6.22,7.5 a 28,28 0 0 0 3.75,-0.19 v 0.19 c 0,2.77 -0.74,3.62 -4.11,3.62 h -3.7 a 0.29,0.29 0 0 0 -0.33,0.33 v 0.85 a 0.35,0.35 0 0 0 0.33,0.38 c 1.32,0.14 2.68,0.19 3.7,0.19 5,0 6.08,-1.4 6.08,-6.63 V 75.06 c 0,-0.27 -0.11,-0.38 -0.36,-0.41 a 40.87,40.87 0 0 0 -5.56,-0.36 m -10.89,0.14 a 0.32,0.32 0 0 0 -0.36,0.36 v 14.1 c 0,0.25 0.11,0.36 0.36,0.36 h 1.29 a 0.32,0.32 0 0 0 0.36,-0.36 v -14.1 a 0.33,0.33 0 0 0 -0.36,-0.36 z m 0.66,-5.45 a 1.16,1.16 0 0 0 -1.31,1.26 1.18,1.18 0 0 0 1.31,1.31 1.16,1.16 0 0 0 1.26,-1.31 1.13,1.13 0 0 0 -1.29,-1.24 m -9.15,5.31 c -2.41,0 -5.12,0.25 -5.12,3.2 v 0.6 a 3.66,3.66 0 0 0 2.55,3.75 l 4.11,1.64 c 1.31,0.55 1.64,1.15 1.64,2.05 v 0.36 c 0,1.4 -0.79,1.73 -3.34,1.73 h -4.82 c -0.22,0 -0.33,0.11 -0.33,0.36 v 0.85 c 0,0.16 0.06,0.3 0.33,0.33 0.44,0.06 2.79,0.22 4.76,0.22 3.78,0 5.37,-0.58 5.37,-3.48 v -0.33 c 0,-1.42 -0.22,-2.71 -2.6,-3.67 l -3.86,-1.56 c -1.48,-0.6 -1.84,-1.29 -1.84,-2.22 V 77.7 c 0,-1.26 1.15,-1.64 2.38,-1.64 h 5 c 0.25,0 0.36,-0.11 0.36,-0.36 v -0.85 a 0.34,0.34 0 0 0 -0.33,-0.36 40.51,40.51 0 0 0 -4.25,-0.19 M 291.31,76 c 3.15,0 3.78,0.93 3.83,5 h -7.81 c 0.06,-4 0.66,-5 4,-5 m 0,-1.75 c -5,0 -6,1.48 -6,7.53 0,6.05 1,7.56 6,7.56 1.4,0 3,-0.06 4.33,-0.19 a 0.34,0.34 0 0 0 0.33,-0.36 V 88 a 0.32,0.32 0 0 0 -0.36,-0.36 h -4.3 c -3.2,0 -3.89,-1 -4,-4.82 h 9 c 0.77,0 0.85,-0.22 0.85,-0.68 v -0.79 c -0.06,-5.64 -1.15,-7 -5.83,-7 m -17.58,-3.83 c 4.9,0 6.52,2.44 6.52,8.52 0,6.08 -1.53,8.57 -6.19,8.57 h -5.67 V 70.46 Z m 0.33,-1.83 c -2,0 -5.7,0 -7.42,0.14 -0.27,0 -0.36,0.08 -0.36,0.36 v 19.7 c 0,0.27 0.08,0.33 0.36,0.36 1.73,0.08 5.4,0.14 7.42,0.14 6.19,0 8.27,-2.93 8.27,-10.41 0,-7.48 -2.08,-10.35 -8.27,-10.35 m -22.61,11.28 v 7 a 8.31,8.31 0 0 1 -3.42,0.66 c -2.63,0 -4.41,-0.77 -4.41,-3.51 v -0.44 c 0,-2.74 1,-3.7 4.08,-3.7 z m -3,-11.28 c -4.6,0 -6.93,0.85 -6.93,5.29 v 0.55 c 0,2.41 0.93,4 2.6,4.52 -1.7,0.55 -2.6,2.14 -2.6,4.52 V 84 c 0,4.44 2.14,5.42 6.52,5.42 a 10.64,10.64 0 0 0 4.08,-0.82 3.35,3.35 0 0 0 2.71,0.82 8.78,8.78 0 0 0 1.48,-0.14 0.35,0.35 0 0 0 0.3,-0.36 V 88 c 0,-0.25 -0.11,-0.33 -0.36,-0.33 h -1 c -1.45,0 -1.78,-0.3 -1.78,-1.53 v -6.26 l 1.94,-0.33 c 0.22,0 0.36,-0.11 0.36,-0.33 v -0.77 a 0.32,0.32 0 0 0 -0.36,-0.36 h -7.67 c -3.07,0 -4.11,-0.93 -4.11,-3.75 v -0.58 c 0,-2.93 1.62,-3.31 4.77,-3.31 h 3 c 0.25,0 0.36,0 0.36,-0.27 V 69 q 0,-0.25 -0.33,-0.25 a 24.15,24.15 0 0 0 -3,-0.16 M 226.21,76 c 3.15,0 3.78,0.93 3.83,5 h -7.81 c 0.05,-4 0.66,-5 4,-5 m 0,-1.75 c -5,0 -6,1.48 -6,7.53 0,6.05 1,7.56 6,7.56 1.4,0 3,-0.06 4.33,-0.19 a 0.34,0.34 0 0 0 0.33,-0.36 V 88 a 0.32,0.32 0 0 0 -0.36,-0.36 h -4.3 c -3.2,0 -3.89,-1 -4,-4.82 h 9 c 0.77,0 0.85,-0.22 0.85,-0.68 v -0.79 c -0.06,-5.64 -1.15,-7 -5.83,-7 m -11.1,0 c -1.21,0 -4,0 -4,2.9 v 11.7 a 0.32,0.32 0 0 0 0.36,0.36 h 1.29 c 0.25,0 0.36,-0.11 0.36,-0.36 V 77.61 c 0,-1.31 0.79,-1.56 2.41,-1.56 h 2.38 c 0.22,0 0.36,-0.08 0.36,-0.33 v -0.79 c 0,-0.22 -0.11,-0.3 -0.33,-0.38 a 15.12,15.12 0 0 0 -2.85,-0.25 m -9.51,8.44 v 4.57 a 18.91,18.91 0 0 1 -3.92,0.36 c -2.57,0 -3.48,-0.58 -3.48,-2.6 0,-1.73 0.82,-2.33 2.6,-2.33 z m -4.05,-8.44 a 25,25 0 0 0 -3.72,0.25 c -0.25,0.06 -0.33,0.11 -0.33,0.38 v 0.77 c 0,0.27 0.08,0.36 0.36,0.36 h 3.7 c 2.68,0 4.05,0.74 4.05,2.79 V 81 h -4.83 c -3,0 -4.57,1 -4.57,4.05 0,3.42 1.42,4.33 5,4.33 a 23.24,23.24 0 0 0 5.83,-0.55 0.62,0.62 0 0 0 0.49,-0.71 v -9.58 c 0,-3.18 -2.25,-4.25 -6,-4.25 m -8.81,0.14 c -0.19,0 -0.25,0.08 -0.3,0.38 L 190,86 c -0.3,1.4 -0.49,1.56 -0.93,1.56 -0.44,0 -0.63,-0.11 -1,-1.56 l -2.63,-10.57 c -0.08,-0.36 -0.16,-0.44 -0.36,-0.44 h -1.81 c -0.19,0 -0.27,0.08 -0.36,0.44 L 180.38,86 c -0.33,1.45 -0.41,1.56 -1,1.56 -0.59,0 -0.63,-0.16 -0.93,-1.56 l -2.38,-11.15 c -0.06,-0.3 -0.11,-0.38 -0.3,-0.38 h -1.4 c -0.3,0 -0.36,0.08 -0.3,0.38 l 2.44,11.28 c 0.66,2.93 1,3.29 2.9,3.29 1.9,0 2.16,-0.36 2.85,-3.29 l 2,-8.27 2,8.27 c 0.68,2.93 0.82,3.29 2.85,3.29 2.03,0 2.25,-0.36 2.9,-3.29 l 2.44,-11.28 c 0.06,-0.3 0,-0.38 -0.3,-0.38 z m -26,-3.83 a 0.35,0.35 0 0 0 -0.3,0.36 v 3.48 h -1.53 a 0.32,0.32 0 0 0 -0.36,0.36 v 1 c 0,0.22 0.11,0.33 0.36,0.33 h 1.53 v 10.38 c 0,2.74 1.92,2.88 3.81,2.88 a 8.56,8.56 0 0 0 1.48,-0.14 c 0.22,-0.05 0.33,-0.16 0.33,-0.36 V 88 c 0,-0.25 -0.11,-0.33 -0.38,-0.33 h -1.45 c -1.45,0 -1.78,-0.3 -1.78,-1.53 v -10 h 3 a 0.31,0.31 0 0 0 0.36,-0.33 v -1 a 0.33,0.33 0 0 0 -0.36,-0.36 h -3 V 70.6 c 0,-0.27 -0.14,-0.38 -0.41,-0.3 z m -6.42,-2 c -1.15,0 -3.7,0.05 -3.7,2.93 v 2.9 h -2.05 a 0.33,0.33 0 0 0 -0.36,0.36 v 1 c 0,0.22 0.14,0.33 0.36,0.33 h 2.05 v 12.77 c 0,0.25 0.11,0.36 0.33,0.36 h 1.29 c 0.25,0 0.36,-0.11 0.36,-0.36 V 76.08 h 3.45 a 0.34,0.34 0 0 0 0.38,-0.3 l 0.16,-0.93 c 0.05,-0.27 -0.06,-0.41 -0.3,-0.41 h -3.7 v -2.53 c 0,-1.48 1,-1.53 2.41,-1.53 h 1.56 a 0.33,0.33 0 0 0 0.36,-0.36 v -0.85 a 0.32,0.32 0 0 0 -0.3,-0.36 14.3,14.3 0 0 0 -2.3,-0.22 M 146.05,76 c 3.59,0 4.14,1.15 4.14,5.78 0,4.63 -0.55,5.81 -4.14,5.81 -3.59,0 -4.11,-1.18 -4.11,-5.81 0,-4.63 0.55,-5.78 4.11,-5.78 m 0,-1.75 c -5,0 -6.08,1.51 -6.08,7.53 0,6.02 1,7.56 6.08,7.56 5.08,0 6.11,-1.51 6.11,-7.56 0,-6.05 -1,-7.53 -6.11,-7.53 m -15.57,-5.67 c -3.78,0 -6.82,0.6 -6.82,4.52 v 0.6 c 0,1.89 0.36,3.51 2.6,4.44 L 133,81 a 3.12,3.12 0 0 1 2.14,3.26 v 0.6 c 0,2.19 -1.67,2.74 -4.16,2.74 h -7.26 a 0.3,0.3 0 0 0 -0.33,0.3 v 0.9 c 0,0.22 0.08,0.33 0.27,0.33 2.05,0.22 4.71,0.3 6.66,0.3 3.51,0 6.9,-0.33 6.9,-4.55 V 84 a 4.48,4.48 0 0 0 -2.93,-4.63 L 128,76.76 c -1.89,-0.77 -2.25,-1.59 -2.25,-3.09 v -0.44 c 0,-1.94 1.31,-2.77 4,-2.77 h 6.05 c 0.19,0 0.27,-0.11 0.27,-0.33 V 69.2 c 0,-0.16 -0.08,-0.27 -0.3,-0.3 a 51.75,51.75 0 0 0 -5.34,-0.27"
     class="cls-6"
     style="fill:#3c3c3b;fill-opacity:1" />
  <path
     inkscape:connector-curvature="0"
     id="path16"
     d="m 512.07,31.7 c 4.88,0 6.08,1.53 6.14,7.45 h -12.55 c 0.05,-5.92 1.31,-7.45 6.41,-7.45 m 0,-5.75 C 501.38,25.95 499,29 499,41.4 c 0,12.4 2.41,15.4 13.09,15.4 a 67.81,67.81 0 0 0 9.81,-0.6 0.83,0.83 0 0 0 0.77,-0.93 v -3.4 a 0.73,0.73 0 0 0 -0.82,-0.82 h -9.37 c -5.31,0 -6.63,-1.32 -6.79,-7.12 H 523 c 1.53,0 1.86,-0.44 1.86,-1.48 V 40.79 C 524.75,28.9 522.34,25.94 512.04,25.94 m -24.61,5.76 v 18.9 a 49,49 0 0 1 -6.14,0.44 c -6.19,0 -6.79,-2.19 -6.79,-9.64 0,-7.89 0.82,-9.7 7,-9.7 z m 0.82,-17 c -0.55,0 -0.82,0.22 -0.82,0.82 v 10.75 a 60.79,60.79 0 0 0 -7,-0.33 c -10.14,0 -12.55,3.29 -12.55,15.45 0,12.16 2.41,15.4 13.48,15.4 a 65.48,65.48 0 0 0 11.72,-1 1,1 0 0 0 1,-1.15 V 15.48 c 0,-0.6 -0.22,-0.82 -0.82,-0.82 z m -37.16,17 c 4.88,0 6.08,1.53 6.14,7.45 h -12.55 c 0.05,-5.92 1.31,-7.45 6.41,-7.45 m 0,-5.75 C 440.41,25.95 438,29 438,41.4 c 0,12.4 2.41,15.4 13.09,15.4 a 67.81,67.81 0 0 0 9.81,-0.6 0.83,0.83 0 0 0 0.77,-0.93 v -3.4 a 0.73,0.73 0 0 0 -0.82,-0.82 h -9.37 c -5.31,0 -6.63,-1.32 -6.79,-7.12 h 17.37 c 1.53,0 1.86,-0.44 1.86,-1.48 V 40.79 C 463.81,28.9 461.4,25.94 451.1,25.94 m -23.73,0.27 a 0.73,0.73 0 0 0 -0.82,0.82 V 55.7 a 0.73,0.73 0 0 0 0.82,0.82 h 5 a 0.73,0.73 0 0 0 0.82,-0.82 V 27 a 0.73,0.73 0 0 0 -0.82,-0.82 z m 2.52,-12.44 c -2.58,0 -4,1.37 -4,3.78 0,2.41 1.42,3.78 4,3.78 2.58,0 3.94,-1.37 3.94,-3.78 0,-2.41 -1.37,-3.78 -3.94,-3.78 m -21,12.11 a 30.44,30.44 0 0 0 -9.2,1.7 24.46,24.46 0 0 0 -9.42,-1.64 55.6,55.6 0 0 0 -9.75,0.88 c -0.55,0.11 -0.82,0.22 -0.82,0.88 v 28 c 0.05,0.55 0.27,0.82 0.82,0.82 h 5 a 0.73,0.73 0 0 0 0.82,-0.82 v -24 H 391 c 4.66,0 6,0.27 6,7.34 V 55.7 a 0.73,0.73 0 0 0 0.82,0.82 h 5 c 0.49,0 0.71,-0.22 0.71,-0.82 l 0.11,-16.77 a 22.11,22.11 0 0 0 -0.82,-6.85 33.58,33.58 0 0 1 5.48,-0.44 c 4.77,0 6,0.38 6,8.49 V 55.7 c 0,0.55 0.22,0.82 0.77,0.82 h 5 c 0.55,0 0.77,-0.27 0.77,-0.82 l 0.11,-17.64 C 421.01,27.7 417.88,25.9 408.84,25.9 M 348.91,14.66 a 0.73,0.73 0 0 0 -0.82,0.82 V 55.7 c 0,0.55 0.22,0.82 0.77,0.82 h 5 a 0.73,0.73 0 0 0 0.82,-0.82 V 31.64 H 361 c 5.15,0 6.41,0.38 6.41,8.49 V 55.7 a 0.73,0.73 0 0 0 0.82,0.82 h 5 a 0.73,0.73 0 0 0 0.82,-0.82 V 38.93 c 0,-11.45 -2.79,-13 -12.93,-13 a 56.88,56.88 0 0 0 -6.41,0.27 V 15.48 a 0.73,0.73 0 0 0 -0.82,-0.82 z M 334.3,25.95 c -11.12,0 -13.3,3.05 -13.3,15.39 0,12.34 2.19,15.45 13.31,15.45 a 56.57,56.57 0 0 0 8.66,-0.6 0.88,0.88 0 0 0 0.82,-1 v -3.33 c 0,-0.55 -0.27,-0.82 -0.88,-0.82 h -8.6 c -5.86,0 -6.63,-2 -6.63,-9.7 0,-7.7 0.77,-9.64 6.63,-9.64 h 8.6 c 0.6,0 0.88,-0.27 0.88,-0.82 v -3.35 a 0.88,0.88 0 0 0 -0.82,-1 56.58,56.58 0 0 0 -8.66,-0.6 m -27.72,0 c -6.85,0 -11.78,1.37 -11.78,7.34 v 1.1 c 0,3.23 1.21,6.52 5.48,8.05 l 7.23,2.74 c 2.47,0.93 3.12,1.81 3.12,3.12 v 0.55 c 0,1.92 -1.15,2.36 -4.82,2.36 h -10.64 c -0.66,0 -0.88,0.27 -0.88,0.88 v 3.4 c 0,0.49 0.16,0.77 0.82,0.82 1.81,0.16 5.92,0.49 10.68,0.49 7.18,0 11.34,-1.42 11.34,-7.67 V 48.4 c 0,-3.4 -0.77,-6.19 -5.59,-8 l -7.18,-2.63 c -2.3,-0.88 -3,-1.92 -3,-3.23 v -0.66 c 0,-1.7 1.32,-2.41 3.62,-2.41 h 10.08 c 0.6,0 0.88,-0.27 0.88,-0.82 v -3.22 c 0,-0.49 -0.27,-0.77 -0.82,-0.88 a 56.14,56.14 0 0 0 -8.55,-0.6 m -29.56,0 a 65.62,65.62 0 0 0 -12.27,0.88 c -0.49,0.11 -0.77,0.16 -0.77,0.88 v 28 c 0,0.55 0.22,0.82 0.77,0.82 h 5 a 0.73,0.73 0 0 0 0.82,-0.82 v -24 h 6.3 c 5.15,0 6.41,0.33 6.41,8.44 V 55.7 a 0.73,0.73 0 0 0 0.82,0.82 h 4.93 a 0.77,0.77 0 0 0 0.88,-0.82 V 38.93 c 0,-11.45 -2.79,-13 -12.93,-13 M 246.7,31.7 c 4.88,0 6.08,1.53 6.14,7.45 h -12.55 c 0.06,-5.92 1.32,-7.45 6.41,-7.45 m 0,-5.75 c -10.7,0 -13.1,3.05 -13.1,15.45 0,12.4 2.41,15.4 13.09,15.4 a 67.82,67.82 0 0 0 9.81,-0.6 0.83,0.83 0 0 0 0.77,-0.93 v -3.4 a 0.73,0.73 0 0 0 -0.82,-0.82 h -9.37 c -5.31,0 -6.63,-1.32 -6.79,-7.12 h 17.37 c 1.53,0 1.86,-0.44 1.86,-1.48 V 40.79 C 259.41,28.9 257,25.95 246.7,25.95 M 218,19.1 c -0.49,0.11 -0.77,0.33 -0.77,0.88 v 6.3 h -3.12 a 0.77,0.77 0 0 0 -0.88,0.82 v 3.45 a 0.78,0.78 0 0 0 0.88,0.88 h 3.12 v 18.68 c 0,6.57 4.44,6.68 8.71,6.68 a 24.59,24.59 0 0 0 3.89,-0.38 0.88,0.88 0 0 0 0.82,-1 v -3.6 c 0,-0.55 -0.27,-0.77 -0.93,-0.77 h -2.41 c -2.68,0 -3.4,-0.49 -3.4,-2.9 V 31.42 h 5.42 a 0.78,0.78 0 0 0 0.88,-0.88 V 27.1 a 0.77,0.77 0 0 0 -0.88,-0.82 h -5.42 V 18.6 c 0,-0.6 -0.33,-0.93 -0.93,-0.77 z m -18,6.85 c -6.85,0 -11.78,1.37 -11.78,7.34 v 1.1 c 0,3.23 1.21,6.52 5.48,8.05 l 7.23,2.74 c 2.47,0.93 3.12,1.81 3.12,3.12 v 0.55 c 0,1.92 -1.15,2.36 -4.82,2.36 h -10.69 c -0.66,0 -0.88,0.27 -0.88,0.88 v 3.4 c 0,0.49 0.16,0.77 0.82,0.82 1.81,0.16 5.92,0.49 10.68,0.49 7.18,0 11.34,-1.42 11.34,-7.67 v -0.71 c 0,-3.4 -0.77,-6.19 -5.59,-8 l -7.18,-2.63 c -2.3,-0.88 -3,-1.92 -3,-3.23 V 33.9 c 0,-1.7 1.32,-2.41 3.62,-2.41 h 10.08 c 0.6,0 0.88,-0.27 0.88,-0.82 v -3.24 c 0,-0.49 -0.27,-0.77 -0.82,-0.88 a 56.14,56.14 0 0 0 -8.55,-0.6 m -22.56,0.27 a 0.73,0.73 0 0 0 -0.82,0.82 V 51 h -6.3 c -5.15,0 -6.41,-0.38 -6.41,-8.49 V 27 c 0,-0.55 -0.22,-0.82 -0.77,-0.82 h -4.93 c -0.55,0 -0.93,0.27 -0.93,0.82 v 16.75 c 0,11.45 2.85,13 13,13 a 65.72,65.72 0 0 0 12.22,-0.93 c 0.55,-0.11 0.82,-0.16 0.82,-0.88 V 27 a 0.73,0.73 0 0 0 -0.82,-0.82 z M 175.57,15 c -2.47,0 -3.78,1.26 -3.78,3.62 0,2.36 1.32,3.67 3.78,3.67 2.46,0 3.78,-1.31 3.78,-3.67 0,-2.36 -1.35,-3.62 -3.78,-3.62 m -11.12,0 c -2.47,0 -3.84,1.26 -3.84,3.62 0,2.36 1.37,3.67 3.84,3.67 2.47,0 3.73,-1.31 3.73,-3.67 0,-2.36 -1.27,-3.62 -3.74,-3.62 m -17.55,-0.44 a 1.46,1.46 0 0 0 -1.15,0.55 l -15,17.59 V 15.43 a 0.73,0.73 0 0 0 -0.82,-0.82 h -5.42 a 0.73,0.73 0 0 0 -0.82,0.82 V 55.7 a 0.73,0.73 0 0 0 0.82,0.82 h 5.5 a 0.73,0.73 0 0 0 0.82,-0.82 V 35.53 l 15.89,20.38 a 1.32,1.32 0 0 0 1.21,0.6 h 5.92 c 1.48,0 1.42,-0.82 0.93,-1.48 l -16.6,-21.09 15.29,-18.3 c 0.44,-0.55 0.49,-1 -0.49,-1 z"
     class="cls-6"
     style="fill:#3c3c3b;fill-opacity:1" />
</svg>
