<?xml version="1.0" encoding="UTF-8" standalone="no"?>
<!-- Created with Inkscape (http://www.inkscape.org/) -->

<svg
   xmlns:dc="http://purl.org/dc/elements/1.1/"
   xmlns:cc="http://creativecommons.org/ns#"
   xmlns:rdf="http://www.w3.org/1999/02/22-rdf-syntax-ns#"
   xmlns:svg="http://www.w3.org/2000/svg"
   xmlns="http://www.w3.org/2000/svg"
   xmlns:sodipodi="http://sodipodi.sourceforge.net/DTD/sodipodi-0.dtd"
   xmlns:inkscape="http://www.inkscape.org/namespaces/inkscape"
   version="1.1"
   id="svg834"
   xml:space="preserve"
   width="211.21466"
   height="42.523998"
   viewBox="0 0 211.21466 42.523998"
   sodipodi:docname="405-wichmann.svg"
   inkscape:version="0.92.2 5c3e80d, 2017-08-06"><metadata
     id="metadata840"><rdf:RDF><cc:Work
         rdf:about=""><dc:format>image/svg+xml</dc:format><dc:type
           rdf:resource="http://purl.org/dc/dcmitype/StillImage" /><dc:title></dc:title></cc:Work></rdf:RDF></metadata><defs
     id="defs838"><clipPath
       clipPathUnits="userSpaceOnUse"
       id="clipPath850"><path
         d="m 263.366,-9.262 h 26.702 v 612.624 h -26.702 z"
         id="path848"
         inkscape:connector-curvature="0" /></clipPath><clipPath
       clipPathUnits="userSpaceOnUse"
       id="clipPath856"><path
         d="m 263.539,256.405 h 26.397 v 346.786 h -26.397 z m 0,-211.639 h 26.397 v 7.087 h -26.397 z m 0,-53.857 h 26.397 v 31.18 h -26.397 z"
         id="path854"
         inkscape:connector-curvature="0" /></clipPath><clipPath
       clipPathUnits="userSpaceOnUse"
       id="clipPath862"><path
         d="M 0,594.794 H 281.28 V 0.12 H 0 Z"
         id="path860"
         inkscape:connector-curvature="0" /></clipPath><clipPath
       clipPathUnits="userSpaceOnUse"
       id="clipPath874"><path
         d="M 0,594.794 H 94.05 V 535.166 H 0 Z"
         id="path872"
         inkscape:connector-curvature="0" /></clipPath><clipPath
       clipPathUnits="userSpaceOnUse"
       id="clipPath886"><path
         d="m 93.885,594.794 h 101.94 V 535.166 H 93.885 Z"
         id="path884"
         inkscape:connector-curvature="0" /></clipPath><clipPath
       clipPathUnits="userSpaceOnUse"
       id="clipPath898"><path
         d="m 195.661,594.794 h 67.878 v -93.691 h -67.878 z"
         id="path896"
         inkscape:connector-curvature="0" /></clipPath><clipPath
       clipPathUnits="userSpaceOnUse"
       id="clipPath910"><path
         d="M 0,535.331 H 94.05 V 467.123 H 0 Z"
         id="path908"
         inkscape:connector-curvature="0" /></clipPath><clipPath
       clipPathUnits="userSpaceOnUse"
       id="clipPath922"><path
         d="m 93.885,467.123 h 101.941 v 68.209 H 93.885 Z"
         id="path920"
         inkscape:connector-curvature="0" /></clipPath><clipPath
       clipPathUnits="userSpaceOnUse"
       id="clipPath934"><path
         d="m 195.66,399.08 h 68.044 V 501.269 H 195.66 Z"
         id="path932"
         inkscape:connector-curvature="0" /></clipPath><clipPath
       clipPathUnits="userSpaceOnUse"
       id="clipPath946"><path
         d="M 0,467.287 H 94.05 V 399.08 H 0 Z"
         id="path944"
         inkscape:connector-curvature="0" /></clipPath><clipPath
       clipPathUnits="userSpaceOnUse"
       id="clipPath958"><path
         d="m 93.885,399.08 h 101.941 v 68.208 H 93.885 Z"
         id="path956"
         inkscape:connector-curvature="0" /></clipPath><clipPath
       clipPathUnits="userSpaceOnUse"
       id="clipPath970"><path
         d="M 0,399.245 H 94.05 V 331.036 H 0 Z"
         id="path968"
         inkscape:connector-curvature="0" /></clipPath><clipPath
       clipPathUnits="userSpaceOnUse"
       id="clipPath982"><path
         d="m 93.885,331.036 h 101.941 v 68.209 H 93.885 Z"
         id="path980"
         inkscape:connector-curvature="0" /></clipPath><clipPath
       clipPathUnits="userSpaceOnUse"
       id="clipPath994"><path
         d="m 195.66,296.973 h 68.044 V 399.245 H 195.66 Z"
         id="path992"
         inkscape:connector-curvature="0" /></clipPath><clipPath
       clipPathUnits="userSpaceOnUse"
       id="clipPath1006"><path
         d="M 0,331.201 H 94.05 V 262.91 H 0 Z"
         id="path1004"
         inkscape:connector-curvature="0" /></clipPath><clipPath
       clipPathUnits="userSpaceOnUse"
       id="clipPath1018"><path
         d="m 93.885,262.91 h 101.941 v 68.292 H 93.885 Z"
         id="path1016"
         inkscape:connector-curvature="0" /></clipPath><clipPath
       clipPathUnits="userSpaceOnUse"
       id="clipPath1024"><path
         d="M 93.885,331.201 V 262.91 h 14.442 v 4.738 h 87.498 v 63.553"
         id="path1022"
         inkscape:connector-curvature="0" /></clipPath><clipPath
       clipPathUnits="userSpaceOnUse"
       id="clipPath1036"><path
         d="m 195.66,262.91 h 68.044 v 34.229 H 195.66 Z"
         id="path1034"
         inkscape:connector-curvature="0" /></clipPath><clipPath
       clipPathUnits="userSpaceOnUse"
       id="clipPath1042"><path
         d="m 195.661,297.138 v -29.49 h 50.966 v -4.738 h 16.912 v 34.228"
         id="path1040"
         inkscape:connector-curvature="0" /></clipPath><clipPath
       clipPathUnits="userSpaceOnUse"
       id="clipPath1054"><path
         d="m -7.8908,228.93 h 135.921 v 34.146 H -7.8908 Z"
         id="path1052"
         inkscape:connector-curvature="0" /></clipPath><clipPath
       clipPathUnits="userSpaceOnUse"
       id="clipPath1060"><path
         d="M -7.7009,263.076 V 228.93 h 2.668 v 30.713 H 108.327 v 3.433"
         id="path1058"
         inkscape:connector-curvature="0" /></clipPath><clipPath
       clipPathUnits="userSpaceOnUse"
       id="clipPath1066"><path
         d="M 0,594.794 H 281.28 V 0.12 H 0 Z"
         id="path1064"
         inkscape:connector-curvature="0" /></clipPath><clipPath
       clipPathUnits="userSpaceOnUse"
       id="clipPath1078"><path
         d="m 246.627,263.076 h 16.912 v -6.671 h -16.912 z"
         id="path1076"
         inkscape:connector-curvature="0" /></clipPath><clipPath
       clipPathUnits="userSpaceOnUse"
       id="clipPath1090"><path
         d="m -7.8908,24.8 h 34.063 v 204.295 h -34.063 z"
         id="path1088"
         inkscape:connector-curvature="0" /></clipPath><clipPath
       clipPathUnits="userSpaceOnUse"
       id="clipPath1096"><path
         d="M -7.7009,229.095 V 24.8 44.766 H 26.172 v 7.087 H -7.7009 v 127.275 h 2.668 v 49.967"
         id="path1094"
         inkscape:connector-curvature="0" /></clipPath><clipPath
       clipPathUnits="userSpaceOnUse"
       id="clipPath1102"><path
         d="M 0,594.794 H 281.28 V 0.12 H 0 Z"
         id="path1100"
         inkscape:connector-curvature="0" /></clipPath><clipPath
       clipPathUnits="userSpaceOnUse"
       id="clipPath1114"><path
         d="M 26.007,-9.263 H 128.03 V 58.946 H 26.007 Z"
         id="path1112"
         inkscape:connector-curvature="0" /></clipPath><clipPath
       clipPathUnits="userSpaceOnUse"
       id="clipPath1120"><path
         d="M 26.007,44.766 H 128.03 v 7.087 H 26.007 Z m 0,-53.857 H 128.03 v 31.18 H 26.007 Z"
         id="path1118"
         inkscape:connector-curvature="0" /></clipPath><clipPath
       clipPathUnits="userSpaceOnUse"
       id="clipPath1126"><path
         d="M 0,594.794 H 281.28 V 0.12 H 0 Z"
         id="path1124"
         inkscape:connector-curvature="0" /></clipPath><clipPath
       clipPathUnits="userSpaceOnUse"
       id="clipPath1138"><path
         d="M 127.865,-9.263 H 229.806 V 58.946 H 127.865 Z"
         id="path1136"
         inkscape:connector-curvature="0" /></clipPath><clipPath
       clipPathUnits="userSpaceOnUse"
       id="clipPath1144"><path
         d="m 127.865,44.766 h 101.941 v 7.087 H 127.865 Z m 0,-53.857 h 101.941 v 31.18 H 127.865 Z"
         id="path1142"
         inkscape:connector-curvature="0" /></clipPath><clipPath
       clipPathUnits="userSpaceOnUse"
       id="clipPath1150"><path
         d="M 0,594.794 H 281.28 V 0.12 H 0 Z"
         id="path1148"
         inkscape:connector-curvature="0" /></clipPath><clipPath
       clipPathUnits="userSpaceOnUse"
       id="clipPath1162"><path
         d="m 229.641,-9.263 h 34.063 v 68.209 h -34.063 z"
         id="path1160"
         inkscape:connector-curvature="0" /></clipPath><clipPath
       clipPathUnits="userSpaceOnUse"
       id="clipPath1168"><path
         d="m 229.64,44.766 h 33.898 v 7.087 H 229.64 Z m 0,-53.857 h 33.898 v 31.18 H 229.64 Z"
         id="path1166"
         inkscape:connector-curvature="0" /></clipPath><clipPath
       clipPathUnits="userSpaceOnUse"
       id="clipPath1174"><path
         d="M 0,594.794 H 281.28 V 0.12 H 0 Z"
         id="path1172"
         inkscape:connector-curvature="0" /></clipPath><clipPath
       clipPathUnits="userSpaceOnUse"
       id="clipPath1186"><path
         d="m -7.8908,-9.263 h 34.063 v 34.228 h -34.063 z"
         id="path1184"
         inkscape:connector-curvature="0" /></clipPath><clipPath
       clipPathUnits="userSpaceOnUse"
       id="clipPath1192"><path
         d="M -7.7009,24.965 V -9.091 H 26.172 v 31.18 H -7.7009"
         id="path1190"
         inkscape:connector-curvature="0" /></clipPath><clipPath
       clipPathUnits="userSpaceOnUse"
       id="clipPath1198"><path
         d="M 0,594.794 H 281.28 V 0.12 H 0 Z"
         id="path1196"
         inkscape:connector-curvature="0" /></clipPath><clipPath
       clipPathUnits="userSpaceOnUse"
       id="clipPath1210"><path
         d="M 263.539,44.766 H 281.28 V 22.089 h -17.741 z"
         id="path1208"
         inkscape:connector-curvature="0" /></clipPath><clipPath
       clipPathUnits="userSpaceOnUse"
       id="clipPath1222"><path
         d="M 0,44.766 H 263.539 V 22.089 H 0 Z"
         id="path1220"
         inkscape:connector-curvature="0" /></clipPath><clipPath
       clipPathUnits="userSpaceOnUse"
       id="clipPath1238"><path
         d="M 263.539,140.264 H 281.28 V 51.853 h -17.741 z"
         id="path1236"
         inkscape:connector-curvature="0" /></clipPath><clipPath
       clipPathUnits="userSpaceOnUse"
       id="clipPath1250"><path
         d="m -7.8908,51.67 h 34.063 v 127.654 h -34.063 z"
         id="path1248"
         inkscape:connector-curvature="0" /></clipPath><clipPath
       clipPathUnits="userSpaceOnUse"
       id="clipPath1256"><path
         d="M -7.7009,179.128 V 51.853 H 26.172 v 74.581 H -5.0329 v 52.694"
         id="path1254"
         inkscape:connector-curvature="0" /></clipPath><clipPath
       clipPathUnits="userSpaceOnUse"
       id="clipPath1262"><path
         d="M 0,594.794 H 281.28 V 0.12 H 0 Z"
         id="path1260"
         inkscape:connector-curvature="0" /></clipPath><clipPath
       clipPathUnits="userSpaceOnUse"
       id="clipPath1274"><path
         d="M 26.007,83.584 H 128.03 v 63.909 H 26.007 Z"
         id="path1272"
         inkscape:connector-curvature="0" /></clipPath><clipPath
       clipPathUnits="userSpaceOnUse"
       id="clipPath1280"><path
         d="m 114.872,129.348 v -2.914 H 26.007 V 83.583 H 128.03 v 45.765"
         id="path1278"
         inkscape:connector-curvature="0" /></clipPath><clipPath
       clipPathUnits="userSpaceOnUse"
       id="clipPath1292"><path
         d="M 127.865,129.348 H 229.806 V 83.584 H 127.865 Z"
         id="path1290"
         inkscape:connector-curvature="0" /></clipPath><clipPath
       clipPathUnits="userSpaceOnUse"
       id="clipPath1304"><path
         d="m 229.641,51.67 h 34.063 v 95.823 h -34.063 z"
         id="path1302"
         inkscape:connector-curvature="0" /></clipPath><clipPath
       clipPathUnits="userSpaceOnUse"
       id="clipPath1310"><path
         d="M 246.627,140.264 V 129.348 H 229.64 V 51.853 h 33.899 v 88.411"
         id="path1308"
         inkscape:connector-curvature="0" /></clipPath><clipPath
       clipPathUnits="userSpaceOnUse"
       id="clipPath1322"><path
         d="M 26.007,83.749 H 229.806 V 51.853 H 26.007 Z"
         id="path1320"
         inkscape:connector-curvature="0" /></clipPath><clipPath
       clipPathUnits="userSpaceOnUse"
       id="clipPath1410"><path
         d="m 263.483,179.055 h 26.538 v 77.408 h -26.538 z"
         id="path1408"
         inkscape:connector-curvature="0" /></clipPath><clipPath
       clipPathUnits="userSpaceOnUse"
       id="clipPath1416"><path
         d="m 263.539,256.405 v -3.306 h 9.86 v -73.971 h 16.537 v 77.277"
         id="path1414"
         inkscape:connector-curvature="0" /></clipPath><clipPath
       clipPathUnits="userSpaceOnUse"
       id="clipPath1422"><path
         d="M 0,594.794 H 281.28 V 0.12 H 0 Z"
         id="path1420"
         inkscape:connector-curvature="0" /></clipPath><clipPath
       clipPathUnits="userSpaceOnUse"
       id="clipPath1434"><path
         d="m 246.627,256.405 h 16.912 v -3.306 h -16.912 z"
         id="path1432"
         inkscape:connector-curvature="0" /></clipPath><clipPath
       clipPathUnits="userSpaceOnUse"
       id="clipPath1446"><path
         d="m 263.483,140.206 h 26.538 v 38.965 h -26.538 z"
         id="path1444"
         inkscape:connector-curvature="0" /></clipPath><clipPath
       clipPathUnits="userSpaceOnUse"
       id="clipPath1452"><path
         d="m 273.399,179.128 v -28.509 h -9.86 v -10.355 h 26.397 v 38.864"
         id="path1450"
         inkscape:connector-curvature="0" /></clipPath><clipPath
       clipPathUnits="userSpaceOnUse"
       id="clipPath1458"><path
         d="M 0,594.794 H 281.28 V 0.12 H 0 Z"
         id="path1456"
         inkscape:connector-curvature="0" /></clipPath><clipPath
       clipPathUnits="userSpaceOnUse"
       id="clipPath1470"><path
         d="m 246.584,140.206 h 17.015 v 10.452 h -17.015 z"
         id="path1468"
         inkscape:connector-curvature="0" /></clipPath><clipPath
       clipPathUnits="userSpaceOnUse"
       id="clipPath1482"><path
         d="m 263.539,253.099 h 9.86 v -73.971 h -9.86 z"
         id="path1480"
         inkscape:connector-curvature="0" /></clipPath><clipPath
       clipPathUnits="userSpaceOnUse"
       id="clipPath1494"><path
         d="m 246.584,179.055 h 17.015 v 74.098 h -17.015 z"
         id="path1492"
         inkscape:connector-curvature="0" /></clipPath><clipPath
       clipPathUnits="userSpaceOnUse"
       id="clipPath1506"><path
         d="m 263.539,179.128 h 9.86 v -28.509 h -9.86 z"
         id="path1504"
         inkscape:connector-curvature="0" /></clipPath><clipPath
       clipPathUnits="userSpaceOnUse"
       id="clipPath1518"><path
         d="m 246.627,179.128 h 16.912 v -28.509 h -16.912 z"
         id="path1516"
         inkscape:connector-curvature="0" /></clipPath><clipPath
       clipPathUnits="userSpaceOnUse"
       id="clipPath1530"><path
         d="m 108.259,256.307 h 138.437 v 11.41 H 108.259 Z"
         id="path1528"
         inkscape:connector-curvature="0" /></clipPath><clipPath
       clipPathUnits="userSpaceOnUse"
       id="clipPath1536"><path
         d="m 108.327,267.648 v -8.005 h 5.466 v 3.739 h 105.6 v -6.977 h 27.234 v 11.243"
         id="path1534"
         inkscape:connector-curvature="0" /></clipPath><clipPath
       clipPathUnits="userSpaceOnUse"
       id="clipPath1548"><path
         d="m 114.828,129.279 h 131.868 v 14.176 H 114.828 Z"
         id="path1546"
         inkscape:connector-curvature="0" /></clipPath><clipPath
       clipPathUnits="userSpaceOnUse"
       id="clipPath1554"><path
         d="m 171.211,143.382 v -9.508 h -56.339 v -4.526 h 131.755 v 10.916 h -66.534 v 3.118"
         id="path1552"
         inkscape:connector-curvature="0" /></clipPath><clipPath
       clipPathUnits="userSpaceOnUse"
       id="clipPath1566"><path
         d="m 219.393,256.405 h 27.234 v -3.306 h -27.234 z"
         id="path1564"
         inkscape:connector-curvature="0" /></clipPath><clipPath
       clipPathUnits="userSpaceOnUse"
       id="clipPath1578"><path
         d="M 180.035,140.206 H 246.7 v 10.452 h -66.665 z"
         id="path1576"
         inkscape:connector-curvature="0" /></clipPath><clipPath
       clipPathUnits="userSpaceOnUse"
       id="clipPath1584"><path
         d="m 219.393,150.619 v -7.237 h -39.3 v -3.118 h 66.534 v 10.355"
         id="path1582"
         inkscape:connector-curvature="0" /></clipPath><clipPath
       clipPathUnits="userSpaceOnUse"
       id="clipPath1596"><path
         d="m 219.393,253.099 h 27.234 v -73.971 h -27.234 z"
         id="path1594"
         inkscape:connector-curvature="0" /></clipPath><clipPath
       clipPathUnits="userSpaceOnUse"
       id="clipPath1608"><path
         d="m 219.393,179.128 h 27.234 v -28.509 h -27.234 z"
         id="path1606"
         inkscape:connector-curvature="0" /></clipPath><clipPath
       clipPathUnits="userSpaceOnUse"
       id="clipPath1620"><path
         d="M 113.652,235.217 H 219.52 v 28.282 H 113.652 Z"
         id="path1618"
         inkscape:connector-curvature="0" /></clipPath><clipPath
       clipPathUnits="userSpaceOnUse"
       id="clipPath1626"><path
         d="m 113.793,263.382 v -3.739 h 1.079 v -5.687 h 56.339 v -18.74 h 8.882 v 21.189 h 39.3 v 6.977"
         id="path1624"
         inkscape:connector-curvature="0" /></clipPath><clipPath
       clipPathUnits="userSpaceOnUse"
       id="clipPath1638"><path
         d="m 171.211,235.355 h 8.882 v -56.227 h -8.882 z"
         id="path1636"
         inkscape:connector-curvature="0" /></clipPath><clipPath
       clipPathUnits="userSpaceOnUse"
       id="clipPath1650"><path
         d="m 171.211,179.128 h 8.882 v -35.746 h -8.882 z"
         id="path1648"
         inkscape:connector-curvature="0" /></clipPath><clipPath
       clipPathUnits="userSpaceOnUse"
       id="clipPath1662"><path
         d="m 180.035,179.055 h 39.43 v 77.408 h -39.43 z"
         id="path1660"
         inkscape:connector-curvature="0" /></clipPath><clipPath
       clipPathUnits="userSpaceOnUse"
       id="clipPath1668"><path
         d="m 180.093,256.405 v -77.277 h 4.986 v 73.971 h 34.314 v 3.306"
         id="path1666"
         inkscape:connector-curvature="0" /></clipPath><clipPath
       clipPathUnits="userSpaceOnUse"
       id="clipPath1680"><path
         d="m 180.035,143.342 h 39.43 v 35.829 h -39.43 z"
         id="path1678"
         inkscape:connector-curvature="0" /></clipPath><clipPath
       clipPathUnits="userSpaceOnUse"
       id="clipPath1686"><path
         d="m 180.093,179.128 v -35.746 h 39.3 v 7.237 h -34.314 v 28.509"
         id="path1684"
         inkscape:connector-curvature="0" /></clipPath><clipPath
       clipPathUnits="userSpaceOnUse"
       id="clipPath1698"><path
         d="m 185.079,253.099 h 34.314 v -73.971 h -34.314 z"
         id="path1696"
         inkscape:connector-curvature="0" /></clipPath><clipPath
       clipPathUnits="userSpaceOnUse"
       id="clipPath1710"><path
         d="m 185.079,179.128 h 34.314 v -28.509 h -34.314 z"
         id="path1708"
         inkscape:connector-curvature="0" /></clipPath><clipPath
       clipPathUnits="userSpaceOnUse"
       id="clipPath1722"><path
         d="m 114.872,143.382 h 56.339 v -9.508 h -56.339 z"
         id="path1720"
         inkscape:connector-curvature="0" /></clipPath><clipPath
       clipPathUnits="userSpaceOnUse"
       id="clipPath1734"><path
         d="m 114.792,179.048 h 56.483 v 74.972 h -56.483 z"
         id="path1732"
         inkscape:connector-curvature="0" /></clipPath><clipPath
       clipPathUnits="userSpaceOnUse"
       id="clipPath1746"><path
         d="m 114.872,179.128 h 56.339 v -35.746 h -56.339 z"
         id="path1744"
         inkscape:connector-curvature="0" /></clipPath><clipPath
       clipPathUnits="userSpaceOnUse"
       id="clipPath1758"><path
         d="m -5.1569,205.866 h 85.282 v 53.919 h -85.282 z"
         id="path1756"
         inkscape:connector-curvature="0" /></clipPath><clipPath
       clipPathUnits="userSpaceOnUse"
       id="clipPath1764"><path
         d="M -5.0329,259.643 V 205.866 H 63.123 v 48.09 h 17.002 v 5.687"
         id="path1762"
         inkscape:connector-curvature="0" /></clipPath><clipPath
       clipPathUnits="userSpaceOnUse"
       id="clipPath1770"><path
         d="M 0,594.794 H 281.28 V 0.12 H 0 Z"
         id="path1768"
         inkscape:connector-curvature="0" /></clipPath><clipPath
       clipPathUnits="userSpaceOnUse"
       id="clipPath1782"><path
         d="m 79.985,259.643 h 28.343 v -5.687 H 79.985 Z"
         id="path1780"
         inkscape:connector-curvature="0" /></clipPath><clipPath
       clipPathUnits="userSpaceOnUse"
       id="clipPath1794"><path
         d="M 0,206.006 H 63.123 V 179.128 H 0 Z"
         id="path1792"
         inkscape:connector-curvature="0" /></clipPath><clipPath
       clipPathUnits="userSpaceOnUse"
       id="clipPath1806"><path
         d="m -5.1569,126.293 h 90.146 v 53.002 h -90.146 z"
         id="path1804"
         inkscape:connector-curvature="0" /></clipPath><clipPath
       clipPathUnits="userSpaceOnUse"
       id="clipPath1812"><path
         d="M -5.0329,179.128 V 126.434 H 84.989 v 7.44 H 76.672 V 132.68 H 23.93 v 7.942 h 39.193 v 38.506"
         id="path1810"
         inkscape:connector-curvature="0" /></clipPath><clipPath
       clipPathUnits="userSpaceOnUse"
       id="clipPath1818"><path
         d="M 0,594.794 H 281.28 V 0.12 H 0 Z"
         id="path1816"
         inkscape:connector-curvature="0" /></clipPath><clipPath
       clipPathUnits="userSpaceOnUse"
       id="clipPath1830"><path
         d="m 84.848,126.293 h 30.166 v 26.571 H 84.848 Z"
         id="path1828"
         inkscape:connector-curvature="0" /></clipPath><clipPath
       clipPathUnits="userSpaceOnUse"
       id="clipPath1836"><path
         d="m 84.847,133.874 v -7.44 h 30.025 v 2.914 h -6.545 v 4.526"
         id="path1834"
         inkscape:connector-curvature="0" /></clipPath><clipPath
       clipPathUnits="userSpaceOnUse"
       id="clipPath1848"><path
         d="m 23.881,132.636 h 52.861 v 8.035 H 23.881 Z"
         id="path1846"
         inkscape:connector-curvature="0" /></clipPath><clipPath
       clipPathUnits="userSpaceOnUse"
       id="clipPath1854"><path
         d="m 23.93,140.622 v -7.942 h 52.742 v 1.194 H 63.123 v 6.748"
         id="path1852"
         inkscape:connector-curvature="0" /></clipPath><clipPath
       clipPathUnits="userSpaceOnUse"
       id="clipPath1866"><path
         d="m 23.881,132.636 h 52.861 v 8.035 H 23.881 Z"
         id="path1864"
         inkscape:connector-curvature="0" /></clipPath><clipPath
       clipPathUnits="userSpaceOnUse"
       id="clipPath1872"><path
         d="m 29.075,132.84 v 1.21 H 25.94 c 1.254,1.232 2.893,2.728 2.893,4.356 0,1.508 -0.946,2.245 -2.409,2.245 -0.781,0 -1.584,-0.198 -2.277,-0.55 l 0.121,-1.276 c 0.506,0.33 1.122,0.616 1.771,0.616 0.627,0 1.254,-0.33 1.254,-1.035 0,-1.408 -2.607,-3.586 -3.322,-4.279 v -1.287 z m 3.492,1.012 c -1.133,0 -1.122,1.837 -1.122,2.805 0,0.99 0,2.85 1.122,2.85 1.144,0 1.144,-1.86 1.144,-2.85 0,-0.968 0.011,-2.805 -1.144,-2.805 z m 0,-1.144 c 2.222,0 2.685,2.167 2.685,3.949 0,1.782 -0.441,3.994 -2.685,3.994 -2.079,0 -2.662,-2.068 -2.662,-3.994 0,-1.606 0.297,-3.949 2.662,-3.949 z m 4.062,6.007 0.77,-1.002 1.298,1.057 v -5.93 h 1.54 v 7.679 h -1.364 z m 10.521,1.804 h -4.411 l -0.077,-4.126 c 0.451,0.143 0.902,0.209 1.375,0.209 0.88,0 1.76,-0.341 1.76,-1.331 0,-0.979 -0.836,-1.353 -1.639,-1.353 -0.671,0 -1.199,0.231 -1.573,0.385 l -0.033,-1.375 c 0.506,-0.121 1.199,-0.22 1.793,-0.22 1.98,0 2.992,1.166 2.992,2.607 0,1.991 -1.397,2.497 -2.475,2.497 -0.297,0 -0.528,-0.044 -0.704,-0.077 l 0.033,1.64 h 2.959 z m 1.081,-7.811 h 1.144 l 2.684,7.943 h -1.144 z m 10.124,0.132 v 1.21 H 55.22 c 1.254,1.232 2.893,2.728 2.893,4.356 0,1.508 -0.946,2.245 -2.409,2.245 -0.781,0 -1.584,-0.198 -2.277,-0.55 l 0.121,-1.276 c 0.506,0.33 1.122,0.616 1.771,0.616 0.627,0 1.254,-0.33 1.254,-1.035 0,-1.408 -2.607,-3.586 -3.322,-4.279 v -1.287 z m 3.492,1.012 c -1.133,0 -1.122,1.837 -1.122,2.805 0,0.99 0,2.85 1.122,2.85 1.144,0 1.144,-1.86 1.144,-2.85 0,-0.968 0.011,-2.805 -1.144,-2.805 z m 0,-1.144 c 2.222,0 2.685,2.167 2.685,3.949 0,1.782 -0.441,3.994 -2.685,3.994 -2.079,0 -2.662,-2.068 -2.662,-3.994 0,-1.606 0.297,-3.949 2.662,-3.949 z m 3.822,6.007 0.77,-1.002 1.298,1.057 v -5.93 h 1.54 v 7.679 h -1.364 z m 10.629,1.661 c -0.528,0.187 -1.056,0.275 -1.617,0.275 -2.486,0 -3.157,-2.289 -3.157,-4.368 0,-1.804 0.473,-3.575 2.607,-3.575 1.738,0 2.553,1.1 2.553,2.761 0,1.419 -0.793,2.343 -2.245,2.343 -0.649,0 -1.122,-0.242 -1.485,-0.77 l -0.022,0.022 c 0.044,1.144 0.495,2.377 1.826,2.377 0.517,0 0.935,-0.132 1.342,-0.308 z m -2.2,-3.708 c 0.737,0 1.045,-0.693 1.045,-1.441 0,-0.682 -0.297,-1.375 -1.012,-1.375 -0.759,0 -1.067,0.638 -1.067,1.364 0,0.77 0.286,1.452 1.034,1.452 z"
         id="path1870"
         inkscape:connector-curvature="0" /></clipPath><clipPath
       clipPathUnits="userSpaceOnUse"
       id="clipPath1878"><path
         d="m 23.93,140.622 v -7.942 h 52.742 v 1.194 H 63.123 v 6.748"
         id="path1876"
         inkscape:connector-curvature="0" /></clipPath><clipPath
       clipPathUnits="userSpaceOnUse"
       id="clipPath1890"><path
         d="m 108.259,253.887 h 5.601 v 5.809 h -5.601 z"
         id="path1888"
         inkscape:connector-curvature="0" /></clipPath><clipPath
       clipPathUnits="userSpaceOnUse"
       id="clipPath1902"><path
         d="m 113.793,259.643 h 1.079 v -5.687 h -1.079 z"
         id="path1900"
         inkscape:connector-curvature="0" /></clipPath><clipPath
       clipPathUnits="userSpaceOnUse"
       id="clipPath1914"><path
         d="m 108.327,133.874 h 6.545 v -4.526 h -6.545 z"
         id="path1912"
         inkscape:connector-curvature="0" /></clipPath><clipPath
       clipPathUnits="userSpaceOnUse"
       id="clipPath1926"><path
         d="m 63.123,253.956 h 45.204 V 179.128 H 63.123 Z"
         id="path1924"
         inkscape:connector-curvature="0" /></clipPath><clipPath
       clipPathUnits="userSpaceOnUse"
       id="clipPath1938"><path
         d="m 63.075,133.811 h 45.3 v 45.365 h -45.3 z"
         id="path1936"
         inkscape:connector-curvature="0" /></clipPath><clipPath
       clipPathUnits="userSpaceOnUse"
       id="clipPath1944"><path
         d="m 63.123,179.128 v -38.506 h 13.549 v -6.748 h 31.655 v 45.254"
         id="path1942"
         inkscape:connector-curvature="0" /></clipPath><clipPath
       clipPathUnits="userSpaceOnUse"
       id="clipPath1956"><path
         d="m 63.123,140.621 h 13.549 v -6.747 H 63.123 Z"
         id="path1954"
         inkscape:connector-curvature="0" /></clipPath><clipPath
       clipPathUnits="userSpaceOnUse"
       id="clipPath1968"><path
         d="m 63.075,133.811 h 13.66 v 6.862 h -13.66 z"
         id="path1966"
         inkscape:connector-curvature="0" /></clipPath><clipPath
       clipPathUnits="userSpaceOnUse"
       id="clipPath1974"><path
         d="m 29.075,132.84 v 1.21 H 25.94 c 1.254,1.232 2.893,2.728 2.893,4.356 0,1.508 -0.946,2.245 -2.409,2.245 -0.781,0 -1.584,-0.198 -2.277,-0.55 l 0.121,-1.276 c 0.506,0.33 1.122,0.616 1.771,0.616 0.627,0 1.254,-0.33 1.254,-1.035 0,-1.408 -2.607,-3.586 -3.322,-4.279 v -1.287 z m 3.492,1.012 c -1.133,0 -1.122,1.837 -1.122,2.805 0,0.99 0,2.85 1.122,2.85 1.144,0 1.144,-1.86 1.144,-2.85 0,-0.968 0.011,-2.805 -1.144,-2.805 z m 0,-1.144 c 2.222,0 2.685,2.167 2.685,3.949 0,1.782 -0.441,3.994 -2.685,3.994 -2.079,0 -2.662,-2.068 -2.662,-3.994 0,-1.606 0.297,-3.949 2.662,-3.949 z m 4.062,6.007 0.77,-1.002 1.298,1.057 v -5.93 h 1.54 v 7.679 h -1.364 z m 10.521,1.804 h -4.411 l -0.077,-4.126 c 0.451,0.143 0.902,0.209 1.375,0.209 0.88,0 1.76,-0.341 1.76,-1.331 0,-0.979 -0.836,-1.353 -1.639,-1.353 -0.671,0 -1.199,0.231 -1.573,0.385 l -0.033,-1.375 c 0.506,-0.121 1.199,-0.22 1.793,-0.22 1.98,0 2.992,1.166 2.992,2.607 0,1.991 -1.397,2.497 -2.475,2.497 -0.297,0 -0.528,-0.044 -0.704,-0.077 l 0.033,1.64 h 2.959 z m 1.081,-7.811 h 1.144 l 2.684,7.943 h -1.144 z m 10.124,0.132 v 1.21 H 55.22 c 1.254,1.232 2.893,2.728 2.893,4.356 0,1.508 -0.946,2.245 -2.409,2.245 -0.781,0 -1.584,-0.198 -2.277,-0.55 l 0.121,-1.276 c 0.506,0.33 1.122,0.616 1.771,0.616 0.627,0 1.254,-0.33 1.254,-1.035 0,-1.408 -2.607,-3.586 -3.322,-4.279 v -1.287 z m 3.492,1.012 c -1.133,0 -1.122,1.837 -1.122,2.805 0,0.99 0,2.85 1.122,2.85 1.144,0 1.144,-1.86 1.144,-2.85 0,-0.968 0.011,-2.805 -1.144,-2.805 z m 0,-1.144 c 2.222,0 2.685,2.167 2.685,3.949 0,1.782 -0.441,3.994 -2.685,3.994 -2.079,0 -2.662,-2.068 -2.662,-3.994 0,-1.606 0.297,-3.949 2.662,-3.949 z m 3.822,6.007 0.77,-1.002 1.298,1.057 v -5.93 h 1.54 v 7.679 h -1.364 z m 10.629,1.661 c -0.528,0.187 -1.056,0.275 -1.617,0.275 -2.486,0 -3.157,-2.289 -3.157,-4.368 0,-1.804 0.473,-3.575 2.607,-3.575 1.738,0 2.553,1.1 2.553,2.761 0,1.419 -0.793,2.343 -2.245,2.343 -0.649,0 -1.122,-0.242 -1.485,-0.77 l -0.022,0.022 c 0.044,1.144 0.495,2.377 1.826,2.377 0.517,0 0.935,-0.132 1.342,-0.308 z m -2.2,-3.708 c 0.737,0 1.045,-0.693 1.045,-1.441 0,-0.682 -0.297,-1.375 -1.012,-1.375 -0.759,0 -1.067,0.638 -1.067,1.364 0,0.77 0.286,1.452 1.034,1.452 z"
         id="path1972"
         inkscape:connector-curvature="0" /></clipPath><clipPath
       clipPathUnits="userSpaceOnUse"
       id="clipPath1980"><path
         d="m 63.123,133.874 h 13.549 v 6.747 H 63.123 Z"
         id="path1978"
         inkscape:connector-curvature="0" /></clipPath><clipPath
       clipPathUnits="userSpaceOnUse"
       id="clipPath1992"><path
         d="m 108.248,179.048 h 5.591 v 74.972 h -5.591 z"
         id="path1990"
         inkscape:connector-curvature="0" /></clipPath><clipPath
       clipPathUnits="userSpaceOnUse"
       id="clipPath2004"><path
         d="m 108.248,133.811 h 6.671 v 45.365 h -6.671 z"
         id="path2002"
         inkscape:connector-curvature="0" /></clipPath><clipPath
       clipPathUnits="userSpaceOnUse"
       id="clipPath2010"><path
         d="m 108.327,179.128 v -45.254 h 6.545 v 9.508 h -1.079 v 35.746"
         id="path2008"
         inkscape:connector-curvature="0" /></clipPath><clipPath
       clipPathUnits="userSpaceOnUse"
       id="clipPath2022"><path
         d="m 113.793,253.956 h 1.079 v -74.828 h -1.079 z"
         id="path2020"
         inkscape:connector-curvature="0" /></clipPath><clipPath
       clipPathUnits="userSpaceOnUse"
       id="clipPath2034"><path
         d="m 113.793,179.128 h 1.079 v -35.746 h -1.079 z"
         id="path2032"
         inkscape:connector-curvature="0" /></clipPath><clipPath
       clipPathUnits="userSpaceOnUse"
       id="clipPath2046"><path
         d="M 0,594.794 H 281.28 V 0.12 H 0 Z"
         id="path2044"
         inkscape:connector-curvature="0" /></clipPath></defs><sodipodi:namedview
     pagecolor="#ffffff"
     bordercolor="#666666"
     borderopacity="1"
     objecttolerance="10"
     gridtolerance="10"
     guidetolerance="10"
     inkscape:pageopacity="0"
     inkscape:pageshadow="2"
     inkscape:window-width="1920"
     inkscape:window-height="1020"
     id="namedview836"
     showgrid="false"
     fit-margin-top="0"
     fit-margin-left="0"
     fit-margin-right="0"
     fit-margin-bottom="0"
     inkscape:zoom="2.1007273"
     inkscape:cx="101.33501"
     inkscape:cy="-9.7356565"
     inkscape:window-x="0"
     inkscape:window-y="31"
     inkscape:window-maximized="1"
     inkscape:current-layer="g842" /><g
     id="g842"
     inkscape:groupmode="layer"
     inkscape:label="wichmann_programm_2015-16"
     transform="matrix(1.3333333,0,0,-1.3333333,-133.352,765.22131)"><g
       id="g1364"
       transform="translate(140.21,567.59)"><path
         d="M 0,0 H 2.504 L 6.59,-15.156 10.28,0.198 h 3.426 l 3.69,-15.486 3.954,15.486 h 2.767 L 18.78,-18.516 h -3.229 l -3.624,15.88 -3.624,-15.88 H 4.876"
         style="fill:#231f20;fill-opacity:1;fill-rule:evenodd;stroke:none"
         id="path1366"
         inkscape:connector-curvature="0" /></g><g
       id="g1368"
       transform="translate(166.172,562.978)"><path
         d="M 0,0 H 2.438 V -13.904 H -0.066"
         style="fill:#231f20;fill-opacity:1;fill-rule:evenodd;stroke:none"
         id="path1370"
         inkscape:connector-curvature="0" /></g><g
       id="g1372"
       transform="translate(171.707,555.598)"><path
         d="m 0,0 c 0,3.229 1.648,7.314 5.799,7.314 4.151,0 3.097,-0.197 3.097,-0.197 V 4.612 c 0,0 -0.785,0.528 -2.768,0.528 -2.965,0 -3.624,-2.57 -3.624,-5.206 0,-2.636 1.977,-4.744 3.954,-4.744 1.977,0 2.57,0.724 2.57,0.724 v -2.438 c 0,0 -0.989,-0.461 -2.9,-0.461 C 2.174,-6.985 0,-3.229 0,0"
         style="fill:#231f20;fill-opacity:1;fill-rule:evenodd;stroke:none"
         id="path1374"
         inkscape:connector-curvature="0" /></g><g
       id="g1376"
       transform="translate(166.107,568.513)"><path
         d="M 0,0 H 2.57 V -2.833 H -0.066"
         style="fill:#231f20;fill-opacity:1;fill-rule:evenodd;stroke:none"
         id="path1378"
         inkscape:connector-curvature="0" /></g><g
       id="g1380"
       transform="translate(183.371,569.106)"><path
         d="m 0,0 h 2.372 l 0.066,-8.369 c 0,0 0.658,2.175 3.822,2.175 3.163,0 4.547,-2.043 4.547,-3.69 V -20.032 H 8.5 v 9.028 c 0,1.12 -0.528,2.569 -2.569,2.569 -2.044,0 -3.493,-2.174 -3.493,-3.426 0,-1.252 -0.066,-8.171 -0.066,-8.171 h -2.438"
         style="fill:#231f20;fill-opacity:1;fill-rule:evenodd;stroke:none"
         id="path1382"
         inkscape:connector-curvature="0" /></g><g
       id="g1384"
       transform="translate(198.065,562.912)"><path
         d="m 0,0 h 2.11 l 0.065,-2.175 c 0,0 0.988,2.175 3.361,2.175 3.492,0 4.019,-2.175 4.019,-2.175 0,0 1.516,2.175 3.559,2.175 2.042,0 4.546,-0.791 4.546,-4.283 v -9.555 h -2.438 c 0,0 0.066,7.644 0.066,9.028 0,1.383 -0.33,2.635 -2.307,2.635 -1.976,0 -2.833,-1.581 -2.833,-2.833 v -8.83 H 7.512 v 9.159 c 0,0.791 0.198,2.504 -2.109,2.504 -2.305,0 -3.031,-1.977 -3.031,-2.899 v -8.764 h -2.438"
         style="fill:#231f20;fill-opacity:1;fill-rule:evenodd;stroke:none"
         id="path1386"
         inkscape:connector-curvature="0" /></g><g
       id="g1388"
       transform="translate(247.552,562.912)"><path
         d="m 0,0 h 2.307 v -1.911 c 0,0 1.449,1.911 4.084,1.911 2.637,0 4.482,-1.78 4.482,-4.481 v -9.357 H 8.632 v 8.369 c 0,1.054 -0.593,3.294 -2.635,3.294 -2.043,0 -3.559,-1.45 -3.559,-3.755 0,-2.307 0.066,-7.908 0.066,-7.908 H 0"
         style="fill:#231f20;fill-opacity:1;fill-rule:evenodd;stroke:none"
         id="path1390"
         inkscape:connector-curvature="0" /></g><g
       id="g1392"
       transform="translate(232.792,562.912)"><path
         d="m 0,0 h 2.306 v -1.911 c 0,0 1.45,1.911 4.085,1.911 2.636,0 4.482,-1.78 4.482,-4.481 v -9.357 H 8.632 v 8.369 c 0,1.054 -0.593,3.294 -2.636,3.294 -2.043,0 -3.558,-1.45 -3.558,-3.755 0,-2.307 0.066,-7.908 0.066,-7.908 H 0"
         style="fill:#231f20;fill-opacity:1;fill-rule:evenodd;stroke:none"
         id="path1394"
         inkscape:connector-curvature="0" /></g><g
       id="g1396"
       transform="translate(105.352,559.617)"><path
         d="M 0,0 H 10.609 V 11.004 L 23.26,-1.516 H 12.256 l -0.066,-1.845 10.873,0.066 -11.466,-10.346 -11.992,10.215 10.872,0.065 0.066,1.845 H -0.066 Z m 10.807,14.299 c 8.916,0 16.144,-7.139 16.144,-15.946 0,-8.808 -7.228,-15.947 -16.144,-15.947 -8.916,0 -16.145,7.139 -16.145,15.947 0,8.807 7.229,15.946 16.145,15.946 m -0.066,-1.516 c 8.006,0 14.496,-6.475 14.496,-14.463 0,-7.989 -6.49,-14.464 -14.496,-14.464 -8.007,0 -14.497,6.475 -14.497,14.464 0,7.988 6.49,14.463 14.497,14.463 M 12.256,7.248 19.439,0 H 12.256 Z M 3.822,-5.008 h 15.353 l -7.644,-6.523"
         style="fill:#231f20;fill-opacity:1;fill-rule:evenodd;stroke:none"
         id="path1398"
         inkscape:connector-curvature="0" /></g><g
       id="g1400"
       transform="translate(219.811,559.551)"><path
         d="m 0,0 v 2.241 c 0,0 1.054,1.12 4.085,1.12 3.032,0 4.942,-2.504 4.942,-4.02 v -9.225 l 0.264,-0.132 v -0.461 H 6.852 v 1.384 c 0,0 -1.581,-1.845 -3.953,-1.911 -2.372,-0.066 -4.283,2.174 -4.283,4.612 0,2.439 3.229,4.416 4.613,4.416 1.383,0 3.426,0.065 3.426,0.065 v 1.647 c 0,0.528 -0.791,1.45 -2.702,1.45 C 2.042,1.186 0,0 0,0 m 1.12,-6.589 c 0,1.383 1.647,2.503 3.163,2.503 h 2.24 c 0,0 0.085,-1.255 0,-2.108 -0.065,-0.659 -0.589,-2.438 -2.767,-2.438 -1.911,0 -2.636,0.659 -2.636,2.043"
         style="fill:#231f20;fill-opacity:1;fill-rule:evenodd;stroke:none"
         id="path1402"
         inkscape:connector-curvature="0" /></g><g
       id="g2040"><g
         id="g2042"
         clip-path="url(#clipPath2046)"><g
           id="g2048"
           transform="translate(-5.1979,594.688)"><path
             d="M 0,0 H -15"
             style="fill:none;stroke:#ffffff;stroke-width:1.25;stroke-linecap:butt;stroke-linejoin:miter;stroke-miterlimit:10;stroke-dasharray:none;stroke-opacity:1"
             id="path2050"
             inkscape:connector-curvature="0" /><g
             id="g2052"
             transform="translate(292.63)"><path
               d="M 0,0 H 15"
               style="fill:none;stroke:#ffffff;stroke-width:1.25;stroke-linecap:butt;stroke-linejoin:miter;stroke-miterlimit:10;stroke-dasharray:none;stroke-opacity:1"
               id="path2054"
               inkscape:connector-curvature="0" /><g
               id="g2056"
               transform="translate(-292.63,-595.276)"><path
                 d="M 0,0 H -15"
                 style="fill:none;stroke:#ffffff;stroke-width:1.25;stroke-linecap:butt;stroke-linejoin:miter;stroke-miterlimit:10;stroke-dasharray:none;stroke-opacity:1"
                 id="path2058"
                 inkscape:connector-curvature="0" /><g
                 id="g2060"
                 transform="translate(292.63)"><path
                   d="M 0,0 H 15"
                   style="fill:none;stroke:#ffffff;stroke-width:1.25;stroke-linecap:butt;stroke-linejoin:miter;stroke-miterlimit:10;stroke-dasharray:none;stroke-opacity:1"
                   id="path2062"
                   inkscape:connector-curvature="0" /><g
                   id="g2064"
                   transform="translate(-286.63,601.276)"><path
                     d="M 0,0 V 15"
                     style="fill:none;stroke:#ffffff;stroke-width:1.25;stroke-linecap:butt;stroke-linejoin:miter;stroke-miterlimit:10;stroke-dasharray:none;stroke-opacity:1"
                     id="path2066"
                     inkscape:connector-curvature="0" /><g
                     id="g2068"
                     transform="translate(0,-607.276)"><path
                       d="M 0,0 V -15"
                       style="fill:none;stroke:#ffffff;stroke-width:1.25;stroke-linecap:butt;stroke-linejoin:miter;stroke-miterlimit:10;stroke-dasharray:none;stroke-opacity:1"
                       id="path2070"
                       inkscape:connector-curvature="0" /><g
                       id="g2072"
                       transform="translate(280.63,607.276)"><path
                         d="M 0,0 V 15"
                         style="fill:none;stroke:#ffffff;stroke-width:1.25;stroke-linecap:butt;stroke-linejoin:miter;stroke-miterlimit:10;stroke-dasharray:none;stroke-opacity:1"
                         id="path2074"
                         inkscape:connector-curvature="0" /><g
                         id="g2076"
                         transform="translate(0,-607.276)"><path
                           d="M 0,0 V -15"
                           style="fill:none;stroke:#ffffff;stroke-width:1.25;stroke-linecap:butt;stroke-linejoin:miter;stroke-miterlimit:10;stroke-dasharray:none;stroke-opacity:1"
                           id="path2078"
                           inkscape:connector-curvature="0" /></g></g></g></g></g></g></g></g><g
           id="g2080"
           transform="translate(-5.1979,594.688)"><path
             d="M 0,0 H -15"
             style="fill:none;stroke:#231f20;stroke-width:0.25;stroke-linecap:butt;stroke-linejoin:miter;stroke-miterlimit:10;stroke-dasharray:none;stroke-opacity:1"
             id="path2082"
             inkscape:connector-curvature="0" /><g
             id="g2084"
             transform="translate(292.63)"><path
               d="M 0,0 H 15"
               style="fill:none;stroke:#231f20;stroke-width:0.25;stroke-linecap:butt;stroke-linejoin:miter;stroke-miterlimit:10;stroke-dasharray:none;stroke-opacity:1"
               id="path2086"
               inkscape:connector-curvature="0" /><g
               id="g2088"
               transform="translate(-292.63,-595.276)"><path
                 d="M 0,0 H -15"
                 style="fill:none;stroke:#231f20;stroke-width:0.25;stroke-linecap:butt;stroke-linejoin:miter;stroke-miterlimit:10;stroke-dasharray:none;stroke-opacity:1"
                 id="path2090"
                 inkscape:connector-curvature="0" /><g
                 id="g2092"
                 transform="translate(292.63)"><path
                   d="M 0,0 H 15"
                   style="fill:none;stroke:#231f20;stroke-width:0.25;stroke-linecap:butt;stroke-linejoin:miter;stroke-miterlimit:10;stroke-dasharray:none;stroke-opacity:1"
                   id="path2094"
                   inkscape:connector-curvature="0" /><g
                   id="g2096"
                   transform="translate(-286.63,601.276)"><path
                     d="M 0,0 V 15"
                     style="fill:none;stroke:#231f20;stroke-width:0.25;stroke-linecap:butt;stroke-linejoin:miter;stroke-miterlimit:10;stroke-dasharray:none;stroke-opacity:1"
                     id="path2098"
                     inkscape:connector-curvature="0" /><g
                     id="g2100"
                     transform="translate(0,-607.276)"><path
                       d="M 0,0 V -15"
                       style="fill:none;stroke:#231f20;stroke-width:0.25;stroke-linecap:butt;stroke-linejoin:miter;stroke-miterlimit:10;stroke-dasharray:none;stroke-opacity:1"
                       id="path2102"
                       inkscape:connector-curvature="0" /><g
                       id="g2104"
                       transform="translate(280.63,607.276)"><path
                         d="M 0,0 V 15"
                         style="fill:none;stroke:#231f20;stroke-width:0.25;stroke-linecap:butt;stroke-linejoin:miter;stroke-miterlimit:10;stroke-dasharray:none;stroke-opacity:1"
                         id="path2106"
                         inkscape:connector-curvature="0" /><g
                         id="g2108"
                         transform="translate(0,-607.276)"><path
                           d="M 0,0 V -15"
                           style="fill:none;stroke:#231f20;stroke-width:0.25;stroke-linecap:butt;stroke-linejoin:miter;stroke-miterlimit:10;stroke-dasharray:none;stroke-opacity:1"
                           id="path2110"
                           inkscape:connector-curvature="0" /></g></g></g></g></g></g></g></g></g></g></g></svg>