<?xml version="1.0" encoding="UTF-8" standalone="no"?>
<!-- Created with Inkscape (http://www.inkscape.org/) -->

<svg
   xmlns:dc="http://purl.org/dc/elements/1.1/"
   xmlns:cc="http://creativecommons.org/ns#"
   xmlns:rdf="http://www.w3.org/1999/02/22-rdf-syntax-ns#"
   xmlns:svg="http://www.w3.org/2000/svg"
   xmlns="http://www.w3.org/2000/svg"
   xmlns:xlink="http://www.w3.org/1999/xlink"
   xmlns:sodipodi="http://sodipodi.sourceforge.net/DTD/sodipodi-0.dtd"
   xmlns:inkscape="http://www.inkscape.org/namespaces/inkscape"
   id="svg2"
   version="1.1"
   inkscape:version="0.92.2 5c3e80d, 2017-08-06"
   xml:space="preserve"
   width="125mm"
   height="168mm"
   viewBox="0 0 442.9134 595.27556"
   sodipodi:docname="deckseite-vektor-mit-schnittmarken.svg"><metadata
     id="metadata8"><rdf:RDF><cc:Work
         rdf:about=""><dc:format>image/svg+xml</dc:format><dc:type
           rdf:resource="http://purl.org/dc/dcmitype/StillImage" /><dc:title /></cc:Work></rdf:RDF></metadata><defs
     id="defs6"><clipPath
       clipPathUnits="userSpaceOnUse"
       id="clipPath22"><path
         d="m 14.04,681.72 141.84,0 0,141.84 -141.84,0 0,-141.84 z"
         id="path24"
         inkscape:connector-curvature="0" /></clipPath><clipPath
       clipPathUnits="userSpaceOnUse"
       id="clipPath30"><path
         d="m 14.050048,823.47525 0,-141.73227 141.732272,0 0,141.73227"
         id="path32"
         inkscape:connector-curvature="0" /></clipPath><clipPath
       clipPathUnits="userSpaceOnUse"
       id="clipPath48"><path
         d="m 257.63999,699.24 312.12,0 0,116.04 -312.12,0 0,-116.04 z"
         id="path50"
         inkscape:connector-curvature="0" /></clipPath><clipPath
       clipPathUnits="userSpaceOnUse"
       id="clipPath56"><path
         d="m 257.70361,815.27392 0,-115.99999 312,0 0,115.99999"
         id="path58"
         inkscape:connector-curvature="0" /></clipPath><clipPath
       clipPathUnits="userSpaceOnUse"
       id="clipPath68"><path
         d="m 9.6,158.28001 573.95999,0 0,397.92 -573.95999,0 0,-397.92 z"
         id="path70"
         inkscape:connector-curvature="0" /></clipPath><clipPath
       clipPathUnits="userSpaceOnUse"
       id="clipPath76"><path
         d="m 9.713792,556.09535 0,-397.75024 573.734008,0 0,397.75024"
         id="path78"
         inkscape:connector-curvature="0" /></clipPath><clipPath
       id="clipPath4253"
       clipPathUnits="userSpaceOnUse"><path
         inkscape:connector-curvature="0"
         id="path4255"
         d="m 71.999998,71.880016 468.119992,0 0,648.119984 -468.119992,0 0,-648.119984 z" /></clipPath><clipPath
       id="clipPath4263"
       clipPathUnits="userSpaceOnUse"><path
         inkscape:connector-curvature="0"
         id="path4265"
         d="m 71.999998,71.880016 468.119992,0 0,648.119984 -468.119992,0 0,-648.119984 z" /></clipPath><clipPath
       id="clipPath4273"
       clipPathUnits="userSpaceOnUse"><path
         inkscape:connector-curvature="0"
         id="path4275"
         d="m 71.999998,71.880016 468.119992,0 0,648.119984 -468.119992,0 0,-648.119984 z" /></clipPath><clipPath
       id="clipPath4283"
       clipPathUnits="userSpaceOnUse"><path
         inkscape:connector-curvature="0"
         id="path4285"
         d="m 71.999998,71.880016 468.119992,0 0,648.119984 -468.119992,0 0,-648.119984 z" /></clipPath><clipPath
       id="clipPath4293"
       clipPathUnits="userSpaceOnUse"><path
         inkscape:connector-curvature="0"
         id="path4295"
         d="m 71.999998,71.880016 468.119992,0 0,648.119984 -468.119992,0 0,-648.119984 z" /></clipPath><clipPath
       id="clipPath4303"
       clipPathUnits="userSpaceOnUse"><path
         inkscape:connector-curvature="0"
         id="path4305"
         d="m 71.999998,71.880016 468.119992,0 0,648.119984 -468.119992,0 0,-648.119984 z" /></clipPath><clipPath
       id="clipPath4313"
       clipPathUnits="userSpaceOnUse"><path
         inkscape:connector-curvature="0"
         id="path4315"
         d="m 71.999998,71.880016 468.119992,0 0,648.119984 -468.119992,0 0,-648.119984 z" /></clipPath><clipPath
       id="clipPath4323"
       clipPathUnits="userSpaceOnUse"><path
         inkscape:connector-curvature="0"
         id="path4325"
         d="m 71.999998,71.880016 468.119992,0 0,648.119984 -468.119992,0 0,-648.119984 z" /></clipPath><clipPath
       id="clipPath4333"
       clipPathUnits="userSpaceOnUse"><path
         inkscape:connector-curvature="0"
         id="path4335"
         d="m 71.999998,71.880016 468.119992,0 0,648.119984 -468.119992,0 0,-648.119984 z" /></clipPath><clipPath
       id="clipPath4343"
       clipPathUnits="userSpaceOnUse"><path
         inkscape:connector-curvature="0"
         id="path4345"
         d="m 71.999998,71.880016 468.119992,0 0,648.119984 -468.119992,0 0,-648.119984 z" /></clipPath><clipPath
       id="clipPath4353"
       clipPathUnits="userSpaceOnUse"><path
         inkscape:connector-curvature="0"
         id="path4355"
         d="m 71.999998,71.880016 468.119992,0 0,648.119984 -468.119992,0 0,-648.119984 z" /></clipPath><clipPath
       id="clipPath4363"
       clipPathUnits="userSpaceOnUse"><path
         inkscape:connector-curvature="0"
         id="path4365"
         d="m 71.999998,71.880016 468.119992,0 0,648.119984 -468.119992,0 0,-648.119984 z" /></clipPath><clipPath
       id="clipPath4373"
       clipPathUnits="userSpaceOnUse"><path
         inkscape:connector-curvature="0"
         id="path4375"
         d="m 71.999998,71.880016 468.119992,0 0,648.119984 -468.119992,0 0,-648.119984 z" /></clipPath><clipPath
       id="clipPath4383"
       clipPathUnits="userSpaceOnUse"><path
         inkscape:connector-curvature="0"
         id="path4385"
         d="m 71.999998,71.880016 468.119992,0 0,648.119984 -468.119992,0 0,-648.119984 z" /></clipPath><clipPath
       id="clipPath4393"
       clipPathUnits="userSpaceOnUse"><path
         inkscape:connector-curvature="0"
         id="path4395"
         d="m 71.999998,71.880016 468.119992,0 0,648.119984 -468.119992,0 0,-648.119984 z" /></clipPath><clipPath
       id="clipPath4403"
       clipPathUnits="userSpaceOnUse"><path
         inkscape:connector-curvature="0"
         id="path4405"
         d="m 71.999998,71.880016 468.119992,0 0,648.119984 -468.119992,0 0,-648.119984 z" /></clipPath><clipPath
       id="clipPath4413"
       clipPathUnits="userSpaceOnUse"><path
         inkscape:connector-curvature="0"
         id="path4415"
         d="m 71.999998,71.880016 468.119992,0 0,648.119984 -468.119992,0 0,-648.119984 z" /></clipPath><clipPath
       id="clipPath4423"
       clipPathUnits="userSpaceOnUse"><path
         inkscape:connector-curvature="0"
         id="path4425"
         d="m 71.999998,71.880016 468.119992,0 0,648.119984 -468.119992,0 0,-648.119984 z" /></clipPath><clipPath
       id="clipPath4433"
       clipPathUnits="userSpaceOnUse"><path
         inkscape:connector-curvature="0"
         id="path4435"
         d="m 71.999998,71.880016 468.119992,0 0,648.119984 -468.119992,0 0,-648.119984 z" /></clipPath><clipPath
       id="clipPath4443"
       clipPathUnits="userSpaceOnUse"><path
         inkscape:connector-curvature="0"
         id="path4445"
         d="m 71.999998,71.880016 468.119992,0 0,648.119984 -468.119992,0 0,-648.119984 z" /></clipPath><clipPath
       id="clipPath4453"
       clipPathUnits="userSpaceOnUse"><path
         inkscape:connector-curvature="0"
         id="path4455"
         d="m 71.999998,71.880016 468.119992,0 0,648.119984 -468.119992,0 0,-648.119984 z" /></clipPath><clipPath
       id="clipPath4463"
       clipPathUnits="userSpaceOnUse"><path
         inkscape:connector-curvature="0"
         id="path4465"
         d="m 71.999998,71.880016 468.119992,0 0,648.119984 -468.119992,0 0,-648.119984 z" /></clipPath><clipPath
       id="clipPath4473"
       clipPathUnits="userSpaceOnUse"><path
         inkscape:connector-curvature="0"
         id="path4475"
         d="m 71.999998,71.880016 468.119992,0 0,648.119984 -468.119992,0 0,-648.119984 z" /></clipPath><clipPath
       id="clipPath4483"
       clipPathUnits="userSpaceOnUse"><path
         inkscape:connector-curvature="0"
         id="path4485"
         d="m 71.999998,71.880016 468.119992,0 0,648.119984 -468.119992,0 0,-648.119984 z" /></clipPath><clipPath
       id="clipPath4493"
       clipPathUnits="userSpaceOnUse"><path
         inkscape:connector-curvature="0"
         id="path4495"
         d="m 71.999998,71.880016 468.119992,0 0,648.119984 -468.119992,0 0,-648.119984 z" /></clipPath><clipPath
       id="clipPath4503"
       clipPathUnits="userSpaceOnUse"><path
         inkscape:connector-curvature="0"
         id="path4505"
         d="m 71.999998,71.880016 468.119992,0 0,648.119984 -468.119992,0 0,-648.119984 z" /></clipPath><clipPath
       id="clipPath4513"
       clipPathUnits="userSpaceOnUse"><path
         inkscape:connector-curvature="0"
         id="path4515"
         d="m 71.999998,71.880016 468.119992,0 0,648.119984 -468.119992,0 0,-648.119984 z" /></clipPath><clipPath
       id="clipPath4523"
       clipPathUnits="userSpaceOnUse"><path
         inkscape:connector-curvature="0"
         id="path4525"
         d="m 71.999998,71.880016 468.119992,0 0,648.119984 -468.119992,0 0,-648.119984 z" /></clipPath><clipPath
       id="clipPath4533"
       clipPathUnits="userSpaceOnUse"><path
         inkscape:connector-curvature="0"
         id="path4535"
         d="m 71.999998,71.880016 468.119992,0 0,648.119984 -468.119992,0 0,-648.119984 z" /></clipPath><clipPath
       id="clipPath4543"
       clipPathUnits="userSpaceOnUse"><path
         inkscape:connector-curvature="0"
         id="path4545"
         d="m 71.999998,71.880016 468.119992,0 0,648.119984 -468.119992,0 0,-648.119984 z" /></clipPath><clipPath
       id="clipPath4553"
       clipPathUnits="userSpaceOnUse"><path
         inkscape:connector-curvature="0"
         id="path4555"
         d="m 71.999998,71.880016 468.119992,0 0,648.119984 -468.119992,0 0,-648.119984 z" /></clipPath><clipPath
       id="clipPath4563"
       clipPathUnits="userSpaceOnUse"><path
         inkscape:connector-curvature="0"
         id="path4565"
         d="m 71.999998,71.880016 468.119992,0 0,648.119984 -468.119992,0 0,-648.119984 z" /></clipPath><clipPath
       id="clipPath4573"
       clipPathUnits="userSpaceOnUse"><path
         inkscape:connector-curvature="0"
         id="path4575"
         d="m 71.999998,71.880016 468.119992,0 0,648.119984 -468.119992,0 0,-648.119984 z" /></clipPath><clipPath
       id="clipPath4583"
       clipPathUnits="userSpaceOnUse"><path
         inkscape:connector-curvature="0"
         id="path4585"
         d="m 71.999998,71.880016 468.119992,0 0,648.119984 -468.119992,0 0,-648.119984 z" /></clipPath><clipPath
       id="clipPath4593"
       clipPathUnits="userSpaceOnUse"><path
         inkscape:connector-curvature="0"
         id="path4595"
         d="m 71.999998,71.880016 468.119992,0 0,648.119984 -468.119992,0 0,-648.119984 z" /></clipPath><clipPath
       id="clipPath4603"
       clipPathUnits="userSpaceOnUse"><path
         inkscape:connector-curvature="0"
         id="path4605"
         d="m 71.999998,71.880016 468.119992,0 0,648.119984 -468.119992,0 0,-648.119984 z" /></clipPath><clipPath
       id="clipPath4613"
       clipPathUnits="userSpaceOnUse"><path
         inkscape:connector-curvature="0"
         id="path4615"
         d="m 71.999998,71.880016 468.119992,0 0,648.119984 -468.119992,0 0,-648.119984 z" /></clipPath><clipPath
       id="clipPath4623"
       clipPathUnits="userSpaceOnUse"><path
         inkscape:connector-curvature="0"
         id="path4625"
         d="m 71.999998,71.880016 468.119992,0 0,648.119984 -468.119992,0 0,-648.119984 z" /></clipPath><clipPath
       id="clipPath4633"
       clipPathUnits="userSpaceOnUse"><path
         inkscape:connector-curvature="0"
         id="path4635"
         d="m 71.999998,71.880016 468.119992,0 0,648.119984 -468.119992,0 0,-648.119984 z" /></clipPath><clipPath
       id="clipPath4643"
       clipPathUnits="userSpaceOnUse"><path
         inkscape:connector-curvature="0"
         id="path4645"
         d="m 71.999998,71.880016 468.119992,0 0,648.119984 -468.119992,0 0,-648.119984 z" /></clipPath><clipPath
       id="clipPath4653"
       clipPathUnits="userSpaceOnUse"><path
         inkscape:connector-curvature="0"
         id="path4655"
         d="m 71.999998,71.880016 468.119992,0 0,648.119984 -468.119992,0 0,-648.119984 z" /></clipPath><clipPath
       id="clipPath4663"
       clipPathUnits="userSpaceOnUse"><path
         inkscape:connector-curvature="0"
         id="path4665"
         d="m 71.999998,71.880016 468.119992,0 0,648.119984 -468.119992,0 0,-648.119984 z" /></clipPath><clipPath
       id="clipPath4673"
       clipPathUnits="userSpaceOnUse"><path
         inkscape:connector-curvature="0"
         id="path4675"
         d="m 71.999998,71.880016 468.119992,0 0,648.119984 -468.119992,0 0,-648.119984 z" /></clipPath><clipPath
       id="clipPath4683"
       clipPathUnits="userSpaceOnUse"><path
         inkscape:connector-curvature="0"
         id="path4685"
         d="m 71.999998,71.880016 468.119992,0 0,648.119984 -468.119992,0 0,-648.119984 z" /></clipPath><clipPath
       id="clipPath4693"
       clipPathUnits="userSpaceOnUse"><path
         inkscape:connector-curvature="0"
         id="path4695"
         d="m 71.999998,71.880016 468.119992,0 0,648.119984 -468.119992,0 0,-648.119984 z" /></clipPath><clipPath
       id="clipPath4703"
       clipPathUnits="userSpaceOnUse"><path
         inkscape:connector-curvature="0"
         id="path4705"
         d="m 71.999998,71.880016 468.119992,0 0,648.119984 -468.119992,0 0,-648.119984 z" /></clipPath><clipPath
       id="clipPath4713"
       clipPathUnits="userSpaceOnUse"><path
         inkscape:connector-curvature="0"
         id="path4715"
         d="m 71.999998,71.880016 468.119992,0 0,648.119984 -468.119992,0 0,-648.119984 z" /></clipPath><clipPath
       id="clipPath4723"
       clipPathUnits="userSpaceOnUse"><path
         inkscape:connector-curvature="0"
         id="path4725"
         d="m 71.999998,71.880016 468.119992,0 0,648.119984 -468.119992,0 0,-648.119984 z" /></clipPath><clipPath
       id="clipPath4733"
       clipPathUnits="userSpaceOnUse"><path
         inkscape:connector-curvature="0"
         id="path4735"
         d="m 71.999998,71.880016 468.119992,0 0,648.119984 -468.119992,0 0,-648.119984 z" /></clipPath><clipPath
       id="clipPath4743"
       clipPathUnits="userSpaceOnUse"><path
         inkscape:connector-curvature="0"
         id="path4745"
         d="m 71.999998,71.880016 468.119992,0 0,648.119984 -468.119992,0 0,-648.119984 z" /></clipPath><clipPath
       id="clipPath4753"
       clipPathUnits="userSpaceOnUse"><path
         inkscape:connector-curvature="0"
         id="path4755"
         d="m 71.999998,71.880016 468.119992,0 0,648.119984 -468.119992,0 0,-648.119984 z" /></clipPath><filter
       style="color-interpolation-filters:sRGB"
       id="filter3038"
       inkscape:label="Invert"
       x="0"
       y="0"
       width="1"
       height="1"
       inkscape:menu="Color"
       inkscape:menu-tooltip="Invert colors"><feColorMatrix
         id="feColorMatrix3040"
         type="saturate"
         values="1"
         result="fbSourceGraphic" /><feColorMatrix
         id="feColorMatrix3042"
         in="fbSourceGraphic"
         values="-1 0 0 0 1 0 -1 0 0 1 0 0 -1 0 1 0 0 0 1 0 " /></filter><filter
       style="color-interpolation-filters:sRGB"
       id="filter3038-4"
       inkscape:label="Invert"
       x="0"
       y="0"
       width="1"
       height="1"
       inkscape:menu="Color"
       inkscape:menu-tooltip="Invert colors"><feColorMatrix
         id="feColorMatrix3040-4"
         type="saturate"
         values="1"
         result="fbSourceGraphic" /><feColorMatrix
         id="feColorMatrix3042-3"
         in="fbSourceGraphic"
         values="-1 0 0 0 1 0 -1 0 0 1 0 0 -1 0 1 0 0 0 1 0 " /></filter><clipPath
       id="clipPath4263-7"
       clipPathUnits="userSpaceOnUse"><path
         inkscape:connector-curvature="0"
         id="path4265-5"
         d="M 71.999998,71.880016 H 540.11999 V 720 H 71.999998 Z" /></clipPath><clipPath
       id="clipPath4273-8"
       clipPathUnits="userSpaceOnUse"><path
         inkscape:connector-curvature="0"
         id="path4275-7"
         d="M 71.999998,71.880016 H 540.11999 V 720 H 71.999998 Z" /></clipPath><clipPath
       id="clipPath4283-0"
       clipPathUnits="userSpaceOnUse"><path
         inkscape:connector-curvature="0"
         id="path4285-4"
         d="M 71.999998,71.880016 H 540.11999 V 720 H 71.999998 Z" /></clipPath><clipPath
       id="clipPath4293-8"
       clipPathUnits="userSpaceOnUse"><path
         inkscape:connector-curvature="0"
         id="path4295-0"
         d="M 71.999998,71.880016 H 540.11999 V 720 H 71.999998 Z" /></clipPath><clipPath
       id="clipPath4303-4"
       clipPathUnits="userSpaceOnUse"><path
         inkscape:connector-curvature="0"
         id="path4305-2"
         d="M 71.999998,71.880016 H 540.11999 V 720 H 71.999998 Z" /></clipPath><clipPath
       id="clipPath4313-9"
       clipPathUnits="userSpaceOnUse"><path
         inkscape:connector-curvature="0"
         id="path4315-6"
         d="M 71.999998,71.880016 H 540.11999 V 720 H 71.999998 Z" /></clipPath><clipPath
       id="clipPath4323-1"
       clipPathUnits="userSpaceOnUse"><path
         inkscape:connector-curvature="0"
         id="path4325-0"
         d="M 71.999998,71.880016 H 540.11999 V 720 H 71.999998 Z" /></clipPath><clipPath
       id="clipPath4333-4"
       clipPathUnits="userSpaceOnUse"><path
         inkscape:connector-curvature="0"
         id="path4335-2"
         d="M 71.999998,71.880016 H 540.11999 V 720 H 71.999998 Z" /></clipPath><clipPath
       id="clipPath4343-2"
       clipPathUnits="userSpaceOnUse"><path
         inkscape:connector-curvature="0"
         id="path4345-2"
         d="M 71.999998,71.880016 H 540.11999 V 720 H 71.999998 Z" /></clipPath><clipPath
       id="clipPath4353-0"
       clipPathUnits="userSpaceOnUse"><path
         inkscape:connector-curvature="0"
         id="path4355-5"
         d="M 71.999998,71.880016 H 540.11999 V 720 H 71.999998 Z" /></clipPath><clipPath
       id="clipPath4363-5"
       clipPathUnits="userSpaceOnUse"><path
         inkscape:connector-curvature="0"
         id="path4365-2"
         d="M 71.999998,71.880016 H 540.11999 V 720 H 71.999998 Z" /></clipPath><clipPath
       id="clipPath4373-9"
       clipPathUnits="userSpaceOnUse"><path
         inkscape:connector-curvature="0"
         id="path4375-0"
         d="M 71.999998,71.880016 H 540.11999 V 720 H 71.999998 Z" /></clipPath><clipPath
       id="clipPath4383-2"
       clipPathUnits="userSpaceOnUse"><path
         inkscape:connector-curvature="0"
         id="path4385-8"
         d="M 71.999998,71.880016 H 540.11999 V 720 H 71.999998 Z" /></clipPath><clipPath
       id="clipPath4393-3"
       clipPathUnits="userSpaceOnUse"><path
         inkscape:connector-curvature="0"
         id="path4395-8"
         d="M 71.999998,71.880016 H 540.11999 V 720 H 71.999998 Z" /></clipPath><clipPath
       id="clipPath4403-0"
       clipPathUnits="userSpaceOnUse"><path
         inkscape:connector-curvature="0"
         id="path4405-4"
         d="M 71.999998,71.880016 H 540.11999 V 720 H 71.999998 Z" /></clipPath><clipPath
       id="clipPath4413-0"
       clipPathUnits="userSpaceOnUse"><path
         inkscape:connector-curvature="0"
         id="path4415-9"
         d="M 71.999998,71.880016 H 540.11999 V 720 H 71.999998 Z" /></clipPath><clipPath
       id="clipPath4423-1"
       clipPathUnits="userSpaceOnUse"><path
         inkscape:connector-curvature="0"
         id="path4425-9"
         d="M 71.999998,71.880016 H 540.11999 V 720 H 71.999998 Z" /></clipPath><clipPath
       id="clipPath4433-6"
       clipPathUnits="userSpaceOnUse"><path
         inkscape:connector-curvature="0"
         id="path4435-2"
         d="M 71.999998,71.880016 H 540.11999 V 720 H 71.999998 Z" /></clipPath><clipPath
       id="clipPath4443-5"
       clipPathUnits="userSpaceOnUse"><path
         inkscape:connector-curvature="0"
         id="path4445-4"
         d="M 71.999998,71.880016 H 540.11999 V 720 H 71.999998 Z" /></clipPath><clipPath
       id="clipPath4453-4"
       clipPathUnits="userSpaceOnUse"><path
         inkscape:connector-curvature="0"
         id="path4455-9"
         d="M 71.999998,71.880016 H 540.11999 V 720 H 71.999998 Z" /></clipPath><clipPath
       id="clipPath4463-9"
       clipPathUnits="userSpaceOnUse"><path
         inkscape:connector-curvature="0"
         id="path4465-3"
         d="M 71.999998,71.880016 H 540.11999 V 720 H 71.999998 Z" /></clipPath><clipPath
       id="clipPath4473-6"
       clipPathUnits="userSpaceOnUse"><path
         inkscape:connector-curvature="0"
         id="path4475-0"
         d="M 71.999998,71.880016 H 540.11999 V 720 H 71.999998 Z" /></clipPath><clipPath
       id="clipPath4483-5"
       clipPathUnits="userSpaceOnUse"><path
         inkscape:connector-curvature="0"
         id="path4485-0"
         d="M 71.999998,71.880016 H 540.11999 V 720 H 71.999998 Z" /></clipPath><clipPath
       id="clipPath4493-2"
       clipPathUnits="userSpaceOnUse"><path
         inkscape:connector-curvature="0"
         id="path4495-9"
         d="M 71.999998,71.880016 H 540.11999 V 720 H 71.999998 Z" /></clipPath><clipPath
       id="clipPath4503-4"
       clipPathUnits="userSpaceOnUse"><path
         inkscape:connector-curvature="0"
         id="path4505-3"
         d="M 71.999998,71.880016 H 540.11999 V 720 H 71.999998 Z" /></clipPath><clipPath
       id="clipPath4513-5"
       clipPathUnits="userSpaceOnUse"><path
         inkscape:connector-curvature="0"
         id="path4515-1"
         d="M 71.999998,71.880016 H 540.11999 V 720 H 71.999998 Z" /></clipPath><clipPath
       id="clipPath4523-7"
       clipPathUnits="userSpaceOnUse"><path
         inkscape:connector-curvature="0"
         id="path4525-4"
         d="M 71.999998,71.880016 H 540.11999 V 720 H 71.999998 Z" /></clipPath><clipPath
       id="clipPath4533-3"
       clipPathUnits="userSpaceOnUse"><path
         inkscape:connector-curvature="0"
         id="path4535-1"
         d="M 71.999998,71.880016 H 540.11999 V 720 H 71.999998 Z" /></clipPath><clipPath
       id="clipPath4543-4"
       clipPathUnits="userSpaceOnUse"><path
         inkscape:connector-curvature="0"
         id="path4545-6"
         d="M 71.999998,71.880016 H 540.11999 V 720 H 71.999998 Z" /></clipPath><clipPath
       id="clipPath4553-9"
       clipPathUnits="userSpaceOnUse"><path
         inkscape:connector-curvature="0"
         id="path4555-4"
         d="M 71.999998,71.880016 H 540.11999 V 720 H 71.999998 Z" /></clipPath><clipPath
       id="clipPath4563-2"
       clipPathUnits="userSpaceOnUse"><path
         inkscape:connector-curvature="0"
         id="path4565-2"
         d="M 71.999998,71.880016 H 540.11999 V 720 H 71.999998 Z" /></clipPath><clipPath
       id="clipPath4573-6"
       clipPathUnits="userSpaceOnUse"><path
         inkscape:connector-curvature="0"
         id="path4575-4"
         d="M 71.999998,71.880016 H 540.11999 V 720 H 71.999998 Z" /></clipPath><clipPath
       id="clipPath4583-1"
       clipPathUnits="userSpaceOnUse"><path
         inkscape:connector-curvature="0"
         id="path4585-2"
         d="M 71.999998,71.880016 H 540.11999 V 720 H 71.999998 Z" /></clipPath><clipPath
       id="clipPath4593-8"
       clipPathUnits="userSpaceOnUse"><path
         inkscape:connector-curvature="0"
         id="path4595-8"
         d="M 71.999998,71.880016 H 540.11999 V 720 H 71.999998 Z" /></clipPath><clipPath
       id="clipPath4603-9"
       clipPathUnits="userSpaceOnUse"><path
         inkscape:connector-curvature="0"
         id="path4605-28"
         d="M 71.999998,71.880016 H 540.11999 V 720 H 71.999998 Z" /></clipPath><clipPath
       id="clipPath4613-8"
       clipPathUnits="userSpaceOnUse"><path
         inkscape:connector-curvature="0"
         id="path4615-8"
         d="M 71.999998,71.880016 H 540.11999 V 720 H 71.999998 Z" /></clipPath><clipPath
       id="clipPath4623-6"
       clipPathUnits="userSpaceOnUse"><path
         inkscape:connector-curvature="0"
         id="path4625-8"
         d="M 71.999998,71.880016 H 540.11999 V 720 H 71.999998 Z" /></clipPath><clipPath
       id="clipPath4633-3"
       clipPathUnits="userSpaceOnUse"><path
         inkscape:connector-curvature="0"
         id="path4635-8"
         d="M 71.999998,71.880016 H 540.11999 V 720 H 71.999998 Z" /></clipPath><clipPath
       id="clipPath4643-3"
       clipPathUnits="userSpaceOnUse"><path
         inkscape:connector-curvature="0"
         id="path4645-3"
         d="M 71.999998,71.880016 H 540.11999 V 720 H 71.999998 Z" /></clipPath><clipPath
       id="clipPath4653-3"
       clipPathUnits="userSpaceOnUse"><path
         inkscape:connector-curvature="0"
         id="path4655-8"
         d="M 71.999998,71.880016 H 540.11999 V 720 H 71.999998 Z" /></clipPath><clipPath
       id="clipPath4663-0"
       clipPathUnits="userSpaceOnUse"><path
         inkscape:connector-curvature="0"
         id="path4665-4"
         d="M 71.999998,71.880016 H 540.11999 V 720 H 71.999998 Z" /></clipPath><clipPath
       id="clipPath4673-7"
       clipPathUnits="userSpaceOnUse"><path
         inkscape:connector-curvature="0"
         id="path4675-6"
         d="M 71.999998,71.880016 H 540.11999 V 720 H 71.999998 Z" /></clipPath><clipPath
       id="clipPath4683-8"
       clipPathUnits="userSpaceOnUse"><path
         inkscape:connector-curvature="0"
         id="path4685-9"
         d="M 71.999998,71.880016 H 540.11999 V 720 H 71.999998 Z" /></clipPath><clipPath
       id="clipPath4693-0"
       clipPathUnits="userSpaceOnUse"><path
         inkscape:connector-curvature="0"
         id="path4695-6"
         d="M 71.999998,71.880016 H 540.11999 V 720 H 71.999998 Z" /></clipPath><clipPath
       id="clipPath4703-8"
       clipPathUnits="userSpaceOnUse"><path
         inkscape:connector-curvature="0"
         id="path4705-7"
         d="M 71.999998,71.880016 H 540.11999 V 720 H 71.999998 Z" /></clipPath><clipPath
       id="clipPath4713-9"
       clipPathUnits="userSpaceOnUse"><path
         inkscape:connector-curvature="0"
         id="path4715-0"
         d="M 71.999998,71.880016 H 540.11999 V 720 H 71.999998 Z" /></clipPath><clipPath
       id="clipPath4723-3"
       clipPathUnits="userSpaceOnUse"><path
         inkscape:connector-curvature="0"
         id="path4725-3"
         d="M 71.999998,71.880016 H 540.11999 V 720 H 71.999998 Z" /></clipPath><clipPath
       id="clipPath4733-3"
       clipPathUnits="userSpaceOnUse"><path
         inkscape:connector-curvature="0"
         id="path4735-7"
         d="M 71.999998,71.880016 H 540.11999 V 720 H 71.999998 Z" /></clipPath><clipPath
       id="clipPath4743-3"
       clipPathUnits="userSpaceOnUse"><path
         inkscape:connector-curvature="0"
         id="path4745-2"
         d="M 71.999998,71.880016 H 540.11999 V 720 H 71.999998 Z" /></clipPath><clipPath
       id="clipPath4753-6"
       clipPathUnits="userSpaceOnUse"><path
         inkscape:connector-curvature="0"
         id="path4755-5"
         d="M 71.999998,71.880016 H 540.11999 V 720 H 71.999998 Z" /></clipPath></defs><sodipodi:namedview
     pagecolor="#ffffff"
     bordercolor="#666666"
     borderopacity="1"
     objecttolerance="10"
     gridtolerance="10"
     guidetolerance="10"
     inkscape:pageopacity="0"
     inkscape:pageshadow="2"
     inkscape:window-width="1366"
     inkscape:window-height="708"
     id="namedview4"
     showgrid="false"
     inkscape:zoom="0.56442415"
     inkscape:cx="223.96723"
     inkscape:cy="477.59936"
     inkscape:current-layer="g10"
     units="mm"
     width="115mm"
     inkscape:window-x="0"
     inkscape:window-y="31"
     inkscape:window-maximized="1"
     showguides="true" /><g
     id="g10"
     inkscape:groupmode="layer"
     inkscape:label="Designvorschlag_deckseite"
     transform="matrix(1.25,0,0,-1.25,0,595.27551)"><g
       id="g12" /><g
       id="g5318"
       transform="translate(-617.01467,343.70473)"><path
         style="fill:#004e9e;fill-opacity:1;stroke:none;stroke-width:0.02241434"
         d="m 885.00967,55.763599 1.66775,-0.830916 1.66793,-0.8309 v -1.411221 -1.41123 h 3.77241 3.77253 V 50.762997 50.246656 H 877.8618 859.83327 l -0.0108,1.032461 h 13.70361 13.70382 l -0.001,1.092025 h -10e-5 l -10e-4,1.092021 -1.11081,0.565295 -1.11088,0.56525 z"
         id="path5091"
         inkscape:connector-curvature="0" /><path
         style="fill:#004e9e;fill-opacity:1;stroke:none;stroke-width:0.02241434"
         d="m 859.83327,48.578996 h 22.07895 22.07906 V 48.023105 47.46715 h -22.07906 -22.07895 z"
         id="path5089"
         inkscape:connector-curvature="0" /><path
         style="fill:#004e9e;fill-opacity:1;stroke:none;stroke-width:0.02241434"
         d="m 847.28736,52.370157 v 18.862449 h 18.86244 18.8625 v -7.664104 c 0,-4.526872 -0.0273,-7.664103 -0.0722,-7.664103 -0.0382,0 -2.92336,1.448166 -6.40854,3.218161 l -6.33659,3.218242 -7.3908,-3.906877 c -4.065,-2.148791 -7.40363,-3.916502 -7.4192,-3.928297 -0.0218,-0.01635 0.38685,-0.793795 0.50542,-0.964995 0.0108,-0.0108 3.22131,1.677281 7.14086,3.752702 3.91951,2.075365 7.14635,3.773386 7.1706,3.773386 0.0219,0 2.91595,-1.456355 6.42576,-3.236401 l 6.38139,-3.236392 10e-4,-1.09208 c 10e-4,-0.600595 -0.0163,-1.092026 -0.0383,-1.092026 -0.0218,0 -2.91435,1.449196 -6.42765,3.220512 l -6.38785,3.220436 -6.14074,-3.248791 -6.14072,-3.248812 -0.0218,-0.527825 -0.0218,-0.527815 h -1.3863 -1.38613 v -1.350136 -1.3502 h -2.5019 -2.50171 V 48.0413 47.485345 h 2.50171 2.50183 v -6.989098 -6.988968 h -4.88442 -4.88445 z"
         id="path5087"
         inkscape:connector-curvature="0" /><path
         style="fill:#004e9e;fill-opacity:1;stroke:none;stroke-width:0.02241434"
         d="m 858.16803,40.496692 v 6.989083 h 0.83395 0.83391 v -6.989083 -6.989038 h -0.83391 -0.83395 z"
         id="path5085"
         inkscape:connector-curvature="0" /><path
         style="fill:#100000;fill-opacity:1;stroke:none;stroke-width:0.02241434"
         d="m 747.54923,35.481175 c -0.54257,0.192875 -0.92291,0.565515 -1.14306,1.119785 -0.16555,0.416356 -0.17703,0.584806 -0.20544,3.041997 l -0.0274,2.600996 h 0.47701 0.47699 l 0.0218,-2.561276 c 0.0218,-2.482381 0.0273,-2.571711 0.20545,-2.897317 0.25134,-0.47099 0.55295,-0.609835 1.32954,-0.61338 0.76293,-0.003 1.09006,0.1502 1.34243,0.63168 0.15737,0.299976 0.16774,0.458441 0.19124,2.879017 l 0.0218,2.561276 h 0.47154 0.47154 l -10e-4,-2.362721 c -0.002,-2.637666 -0.0749,-3.244217 -0.45569,-3.788097 -0.12621,-0.18031 -0.38685,-0.399405 -0.61382,-0.51634 -0.34149,-0.17539 -0.51197,-0.20598 -1.26998,-0.224025 -0.69665,-0.0108 -0.96209,0.0108 -1.29812,0.12845 z"
         id="path5083"
         inkscape:connector-curvature="0" /><path
         style="fill:#100000;fill-opacity:1;stroke:none;stroke-width:0.02241434"
         d="m 780.49738,35.423195 c -0.28194,0.0438 -0.52126,0.08528 -0.53109,0.09515 -0.0109,0.0108 0.002,0.168295 0.0219,0.351335 l 0.0437,0.333855 1.41336,-0.01635 c 1.32604,-0.0108 1.42701,-0.0108 1.63655,0.149115 0.26937,0.19997 0.38302,0.612711 0.30817,1.112896 -0.0869,0.5807 -0.18796,0.63677 -2.11247,1.1742 -0.59174,0.165555 -0.94712,0.41853 -1.18633,0.845431 -0.17375,0.30981 -0.19779,0.449685 -0.1967,1.10885 0.003,1.407671 0.44313,1.749341 2.24568,1.745676 0.69889,-0.0015 1.7813,-0.110415 1.91402,-0.19179 0.0273,-0.01635 0.0382,-0.17812 0.0218,-0.35624 l -0.0273,-0.323475 h -1.38675 c -0.76277,0 -1.45215,-0.03285 -1.53203,-0.0771 -0.43548,-0.232751 -0.39833,-1.495041 0.0491,-1.736001 0.0814,-0.04365 0.61163,-0.20927 1.17818,-0.36827 1.68431,-0.472081 1.9774,-0.784131 1.98096,-2.106881 0.002,-0.656061 -0.0218,-0.798566 -0.19124,-1.092031 -0.32019,-0.5595 -0.68977,-0.68818 -2.03035,-0.70741 -0.61152,-0.0108 -1.34287,0.01635 -1.62519,0.06121 z"
         id="path5081"
         inkscape:connector-curvature="0" /><path
         style="fill:#100000;fill-opacity:1;stroke:none;stroke-width:0.02241434"
         d="m 862.70631,35.505695 c -0.4005,0.19778 -0.74424,0.634085 -0.9187,1.16458 -0.41144,1.250366 -0.35734,3.698042 0.10116,4.597127 0.20271,0.397236 0.70025,0.835001 1.10201,0.969581 0.45516,0.152505 1.88852,0.19889 2.67839,0.08681 0.64846,-0.09175 0.68992,-0.10933 0.64736,-0.26773 -0.0218,-0.09345 -0.0438,-0.260635 -0.0491,-0.372635 l -4.4e-4,-0.20327 -1.29053,0.0062 c -1.55607,0.0062 -1.8084,-0.07602 -2.10947,-0.682776 -0.37427,-0.75512 -0.41307,-3.049916 -0.0651,-3.881031 0.33822,-0.808291 1.29649,-0.976746 2.30774,-0.405436 l 0.40269,0.22785 0.0218,1.320906 0.0218,1.320851 h 0.47483 0.47481 V 37.401236 35.4157 h -0.35624 c -0.35462,0 -0.35681,0.0015 -0.40762,0.31746 -0.0218,0.17484 -0.0666,0.317445 -0.0857,0.317445 -0.0164,0 -0.15573,-0.09175 -0.30271,-0.20489 -0.68758,-0.52454 -1.94806,-0.685715 -2.64875,-0.338755 z"
         id="path5079"
         inkscape:connector-curvature="0" /><path
         style="fill:#100000;fill-opacity:1;stroke:none;stroke-width:0.02241434"
         d="m 875.72091,42.384967 c -1.73475,-0.08409 -2.31405,-0.796882 -2.4331,-3 -0.12458,-2.299605 0.36292,-3.580507 1.49707,-3.934574 0.46116,-0.14286 1.9224,-0.14556 2.39502,-0.003 1.11077,0.334177 1.5497,1.28784 1.5542,3.380857 0.007,2.782942 -0.74151,3.66705 -3.01319,3.556642 z m 0.27687,-0.89502 c 0.49753,0 0.69605,-0.03473 0.91406,-0.1626 0.58831,-0.34467 0.84876,-1.313257 0.76904,-2.856442 -0.0702,-1.363095 -0.32356,-1.939995 -0.95362,-2.178225 v -0.0015 c -0.21674,-0.08189 -1.02036,-0.09622 -1.38427,-0.0264 -0.30996,0.0597 -0.70875,0.509918 -0.83936,0.949222 -0.28802,0.96963 -0.23128,2.87007 0.10694,3.568358 0.25582,0.528532 0.60864,0.70752 1.38721,0.70752 z"
         id="path5077"
         inkscape:connector-curvature="0" /><path
         style="fill:#100000;fill-opacity:1;stroke:none;stroke-width:0.02241434"
         d="m 881.15477,35.484705 c -0.45023,0.204905 -0.80304,0.6653 -1.0098,1.31905 -0.15573,0.492851 -0.17539,0.727581 -0.17539,2.064936 0,1.248021 0.0219,1.584541 0.1448,1.945811 0.39341,1.186111 1.09857,1.589186 2.77781,1.587771 0.64944,-4.4e-4 1.6636,-0.111495 1.80292,-0.1978 0.0219,-0.01635 0.0273,-0.185215 0.005,-0.372075 l -0.0436,-0.34041 -1.31046,-10e-4 c -1.36659,-0.001 -1.49702,-0.0273 -1.88774,-0.383571 -0.26718,-0.24369 -0.42071,-0.857175 -0.46935,-1.881015 -0.0743,-1.567276 0.16884,-2.578977 0.69529,-2.889867 0.45404,-0.26829 1.23944,-0.1694 1.95937,0.24751 l 0.33766,0.195605 v 1.302791 1.302891 h 0.47646 0.477 V 37.395521 35.40556 l -0.37755,0.0219 c -0.37374,0.0219 -0.37757,0.0273 -0.40215,0.321825 -0.0108,0.16338 -0.0383,0.297785 -0.0552,0.297785 -0.0164,0 -0.18468,-0.103315 -0.37263,-0.229485 -0.18852,-0.126295 -0.51253,-0.286855 -0.72157,-0.35734 -0.52291,-0.17649 -1.43658,-0.165555 -1.84939,0.0219 z"
         id="path5073"
         inkscape:connector-curvature="0" /><path
         style="fill:#100000;fill-opacity:1;stroke:none;stroke-width:0.02241434"
         d="m 752.85592,38.751546 v 3.337707 l 0.2038,0.07711 c 0.25626,0.0973 0.9168,0.10054 1.1671,0.0062 0.15299,-0.05799 0.41089,-0.555415 1.32736,-2.561381 0.62567,-1.369051 1.21266,-2.658101 1.30445,-2.864582 0.0913,-0.206545 0.20272,-0.37592 0.24643,-0.377015 0.0546,-10e-4 0.0694,1.010391 0.0492,2.936762 l -0.0273,2.938551 h 0.4852 0.48519 v -3.332882 c 0,-3.213841 -0.005,-3.335796 -0.15354,-3.415136 -0.22621,-0.12136 -1.1383,-0.1027 -1.31544,0.0273 -0.082,0.05952 -0.72605,1.371386 -1.43123,2.914186 -0.70506,1.542861 -1.31478,2.816111 -1.355,2.829556 -0.0437,0.0108 -0.0628,-1.145565 -0.0491,-2.914186 l 0.0218,-2.938736 h -0.48302 -0.48301 z"
         id="path5071"
         inkscape:connector-curvature="0" /><path
         style="fill:#100000;fill-opacity:1;stroke:none;stroke-width:0.02241434"
         d="m 759.84495,38.828646 v 3.415132 h 0.47645 0.477 V 38.828646 35.41357 h -0.477 -0.47645 z"
         id="path5069"
         inkscape:connector-curvature="0" /><path
         style="fill:#100000;fill-opacity:1;stroke:none;stroke-width:0.02241434"
         d="m 763.9559,35.512865 c -0.10928,0.08466 -2.12541,6.387613 -2.12541,6.646273 0,0.0492 0.18741,0.08466 0.46006,0.08466 h 0.46007 l 0.81019,-2.799611 c 0.44531,-1.539796 0.83281,-2.915717 0.86046,-3.057727 0.0328,-0.18305 0.094,-0.25844 0.20217,-0.25844 0.0831,0 0.16336,0.04365 0.17921,0.09946 0.21255,0.755216 1.52663,5.359728 1.60908,5.638888 l 0.11146,0.377015 h 0.47864 c 0.41963,0 0.47318,-0.01635 0.43547,-0.139405 -0.0219,-0.07648 -0.47536,-1.550601 -1.00334,-3.276057 -0.68572,-2.240221 -1.00673,-3.176906 -1.12278,-3.276181 -0.1967,-0.16884 -1.1518,-0.196145 -1.35506,-0.0382 z"
         id="path5067"
         inkscape:connector-curvature="0" /><path
         style="fill:#100000;fill-opacity:1;stroke:none;stroke-width:0.02241434"
         d="m 769.24462,35.496515 c -0.36062,0.111955 -0.72201,0.558625 -0.78244,0.9675 -0.0218,0.187955 -0.0382,1.383796 -0.0218,2.658357 0.0218,2.211045 0.0328,2.327646 0.19233,2.541446 0.0918,0.1229 0.28795,0.29561 0.43657,0.38303 0.24752,0.145875 0.40488,0.158445 1.9185,0.151425 0.9069,-0.0061 1.66989,-0.03285 1.69562,-0.05459 0.0218,-0.0273 0.0218,-0.19178 -0.0109,-0.36992 l -0.0546,-0.32292 h -1.41374 c -1.83834,0 -1.77835,0.03825 -1.81567,-1.184136 l -0.0219,-0.880785 h 1.43663 1.43664 v -0.396136 -0.39723 h -1.43685 -1.4374 l 0.0218,-1.07863 c 0.0218,-0.957671 0.0438,-1.091366 0.1814,-1.191366 0.11912,-0.08744 0.477,-0.111955 1.60126,-0.111955 h 1.44718 l 0.0546,-0.322905 c 0.0273,-0.17704 0.0328,-0.34423 0.0109,-0.36992 -0.0831,-0.08296 -3.17553,-0.10116 -3.43567,-0.0219 z"
         id="path5065"
         inkscape:connector-curvature="0" /><path
         style="fill:#100000;fill-opacity:1;stroke:none;stroke-width:0.02241434"
         d="m 776.55247,42.305865 c -0.39106,0.0186 -0.85683,0.01058 -1.41065,-0.01905 l -1.08106,-0.05857 v -3.405758 l 0.005,-3.407227 h 0.47608 0.47607 v 1.429688 1.428224 h 0.75733 c 0.83292,0 1.23732,-0.116317 1.38867,-0.399907 0.0514,-0.09616 0.21688,-0.625875 0.36767,-1.177732 0.15026,-0.551798 0.29309,-1.066553 0.31494,-1.14258 0.0344,-0.11148 0.13493,-0.137693 0.542,-0.137693 h 0.49951 l -0.3457,1.161623 c -0.38855,1.308877 -0.52524,1.589107 -0.88477,1.816402 -0.30052,0.19068 -0.3233,0.278325 -0.0703,0.278325 0.27867,0 0.69257,0.315922 0.87452,0.669427 0.21418,0.42117 0.22741,1.435485 0.022,1.96875 -0.24927,0.64761 -0.7575,0.940335 -1.93065,0.996098 z m -1.5381,-0.855473 h 0.98877 c 0.54312,0 1.07671,-0.0309 1.18653,-0.0747 0.33003,-0.125452 0.47743,-0.43851 0.48193,-1.026855 0.005,-0.659865 -0.13156,-0.993832 -0.47167,-1.155765 0,0 -10e-4,0 -10e-4,0 -0.19395,-0.09139 -0.51559,-0.124515 -1.22315,-0.124515 h -0.96094 v 1.190918 z"
         id="path5063"
         inkscape:connector-curvature="0" /><path
         style="fill:#100000;fill-opacity:1;stroke:none;stroke-width:0.02241434"
         d="m 785.7362,38.830281 v 3.415067 h 0.47646 0.477 V 38.831201 35.41608 h -0.477 -0.47646 z"
         id="path5059"
         inkscape:connector-curvature="0" /><path
         style="fill:#100000;fill-opacity:1;stroke:none;stroke-width:0.02241434"
         d="m 789.94551,38.393711 v 2.977952 h -1.07219 -1.07218 v 0.436565 0.43657 h 2.62094 2.62083 v -0.43657 -0.436565 h -1.07219 -1.07219 v -2.978337 -2.978231 h -0.47645 -0.47646 z"
         id="path5057"
         inkscape:connector-curvature="0" /><path
         style="fill:#100000;fill-opacity:1;stroke:none;stroke-width:0.02241434"
         d="m 795.76389,42.247267 c -0.2787,-0.01208 -0.54798,-0.06142 -0.63867,-0.140625 -0.10732,-0.0936 -0.49836,-1.181032 -1.19971,-3.333982 -0.57214,-1.755728 -1.03916,-3.227475 -1.04004,-3.273922 10e-4,-0.0423 0.20092,-0.08204 0.46142,-0.08204 h 0.4629 l 0.30908,1.034182 0.30908,1.034182 1.39014,-0.02047 1.38867,-0.02198 0.31494,-1.013677 0.31348,-1.012207 h 0.46289 c 0.25462,0 0.46288,0.0225 0.46288,0.0498 0,0.02782 -0.48403,1.527982 -1.07519,3.333982 -0.79412,2.42571 -1.11315,3.30522 -1.22461,3.364747 -0.12993,0.0696 -0.41856,0.09413 -0.69726,0.08203 z m 0.0366,-0.811522 c 0.12622,0.01913 0.18508,-0.0357 0.24902,-0.2373 0.0661,-0.209663 0.38974,-1.271048 0.85254,-2.784668 h 10e-4 c 0.0391,-0.128445 -0.048,-0.139162 -1.07519,-0.139162 -0.61454,0 -1.11722,0.02723 -1.11621,0.06008 7.5e-4,0.0327 0.20936,0.737467 0.46288,1.56738 0.39324,1.288635 0.48398,1.51179 0.62549,1.53369 z"
         id="path5055"
         inkscape:connector-curvature="0" /><path
         style="fill:#100000;fill-opacity:1;stroke:none;stroke-width:0.02241434"
         d="m 800.74674,38.397191 v 2.978337 h -1.07214 -1.07225 v 0.436565 0.43657 h 2.6209 2.62093 v -0.43657 -0.436565 h -1.07224 -1.07212 v -2.978387 -2.978226 h -0.47647 -0.47699 z"
         id="path5051"
         inkscape:connector-curvature="0" /><path
         style="fill:#100000;fill-opacity:1;stroke:none;stroke-width:0.02241434"
         d="m 868.57507,35.597525 c -0.6302,0.32292 -0.63828,0.36445 -0.63828,3.258956 0,2.701432 0.0108,2.757552 0.40924,3.126852 0.36828,0.338215 1.11732,0.410335 3.03297,0.29342 l 0.84632,-0.05459 v -0.3852 -0.385205 h -1.4516 c -1.88501,0 -1.80469,0.0492 -1.80469,-1.116396 v -0.86916 h 1.42959 1.42963 v -0.397216 -0.397225 h -1.42963 -1.42959 v -1.066785 c 0,-0.863581 0.0218,-1.090211 0.1246,-1.191251 0.1044,-0.10486 0.36772,-0.124595 1.6282,-0.124595 h 1.50329 v -0.386295 -0.3863 l -0.36882,-0.0492 c -0.2027,-0.0273 -0.94559,-0.0492 -1.65108,-0.0492 -1.17378,0 -1.31201,0.0108 -1.631,0.178675 z"
         id="path5049"
         inkscape:connector-curvature="0" /><path
         style="fill:#100000;fill-opacity:1;stroke:none;stroke-width:0.02241434"
         d="m 888.95285,42.37032 c -0.36617,0.0171 -0.79551,0.0135 -1.29932,-0.0088 l -1.21142,-0.05423 v -3.443843 l 0.003,-3.445312 h 0.47754 0.47608 v 1.429688 1.428217 h 0.76318 c 0.83265,0 1.20917,-0.114975 1.37255,-0.420405 0.0519,-0.09661 0.23178,-0.676343 0.39844,-1.2876 l 0.30176,-1.110352 0.52881,-0.02197 c 0.29067,-0.012 0.52734,0.01013 0.52734,0.04838 0,0.142545 -0.6537,2.284244 -0.76025,2.490232 -0.0602,0.116377 -0.24385,0.321487 -0.40723,0.457027 -0.21258,0.17547 -0.25875,0.244635 -0.1582,0.244635 0.25894,0 0.72853,0.300615 0.88916,0.568358 0.2318,0.39498 0.22705,1.872697 -0.0117,2.330565 -0.26272,0.503985 -0.79114,0.74418 -1.88965,0.795412 z m -1.55859,-0.820313 1.02685,-0.02782 c 0.89134,-0.02408 1.05644,-0.0492 1.25098,-0.193357 0.54934,-0.40728 0.49813,-1.773503 -0.0776,-2.07129 v 0.0015 c -0.16238,-0.08416 -0.55859,-0.134145 -1.22021,-0.166995 l -0.97998,-0.04395 v 1.250977 z"
         id="path5047"
         inkscape:connector-curvature="0" /><path
         style="fill:#100000;fill-opacity:1;stroke:none;stroke-width:0.02241434"
         d="m 894.81955,42.251662 c -0.38059,0.0022 -0.75848,-0.02805 -0.79834,-0.09228 -0.064,-0.103605 -2.17822,-6.585397 -2.17822,-6.678224 l -10e-4,-0.003 c 0,-0.03502 0.22689,-0.0615 0.5039,-0.0615 h 0.50244 l 0.30762,1.03272 0.30762,1.031249 h 1.36084 1.35937 l 0.31348,-1.012207 0.31494,-1.013677 0.52588,-0.02197 0.52734,-0.02198 -0.33838,1.05615 c -1.01108,3.153194 -1.82426,5.594699 -1.89257,5.682134 -0.0508,0.06502 -0.43387,0.100028 -0.81446,0.102533 z m 0.0175,-0.73242 c 0.0831,-0.01665 0.26848,-0.50286 0.58594,-1.53369 0.25571,-0.829912 0.46578,-1.536 0.46728,-1.56885 0.002,-0.03173 -0.48366,-0.05857 -1.07813,-0.05857 -0.88857,0 -1.07142,0.0192 -1.03857,0.10986 0.0367,0.09562 0.78576,2.53665 0.89942,2.931158 0.0229,0.08079 0.0968,0.130912 0.16406,0.120112 z"
         id="path5043"
         inkscape:connector-curvature="0" /><path
         style="fill:#100000;fill-opacity:1;stroke:none;stroke-width:0.02241434"
         d="m 900.44309,42.354202 c -0.83937,-0.0068 -1.56476,-0.0357 -1.60841,-0.063 -0.0602,-0.03383 -0.082,-1.194172 -0.082,-3.46143 l -0.001,-3.411614 h 0.51709 0.51563 v 1.330072 1.331542 h 1.25097 c 1.14,0 1.28006,0.01515 1.58057,0.175785 0.43891,0.234945 0.64275,0.589943 0.74267,1.29639 0.15063,1.062555 -0.047,2.044688 -0.48632,2.414055 -0.4069,0.343598 -0.77347,0.398985 -2.42871,0.388185 z m -0.65919,-0.81738 0.85401,-0.006 c 1.37462,-0.0075 1.67215,-0.201352 1.74756,-1.138185 0.0572,-0.711082 -0.12744,-1.2108 -0.50391,-1.368165 v 0.0015 c -0.1755,-0.0726 -0.57581,-0.10986 -1.18066,-0.10986 h -0.917 v 1.309568 z"
         id="path5039"
         inkscape:connector-curvature="0" /><path
         style="fill:#100000;fill-opacity:1;stroke:none;stroke-width:0.02241434"
         d="m 904.62931,38.834416 v 3.414952 h 0.51634 0.51634 v -1.350081 -1.350195 h 1.50898 1.50903 v 1.349535 1.350136 h 0.47645 0.47699 v -3.414192 -3.415056 h -0.47481 -0.47481 l -0.0218,1.608301 -0.0219,1.60826 -1.48913,0.0219 -1.48914,0.0219 v -1.62994 -1.629891 h -0.51635 -0.51633 z"
         id="path5035"
         inkscape:connector-curvature="0" /><path
         style="fill:#100000;fill-opacity:1;stroke:none;stroke-width:0.02241434"
         d="m 911.30066,38.834416 v 3.414952 h 0.51635 0.51634 v -3.414137 -3.415076 h -0.51634 -0.51635 z"
         id="path5033"
         inkscape:connector-curvature="0" /><path
         style="fill:#100000;fill-opacity:1;stroke:none;stroke-width:0.02241434"
         d="m 914.55564,35.566375 c -0.15189,0.0808 -0.3568,0.265 -0.45515,0.4087 -0.17593,0.25845 -0.17866,0.296695 -0.17866,2.839061 0,2.879062 0.0164,2.966112 0.53437,3.287702 0.35243,0.218015 1.02985,0.267195 2.59515,0.188515 l 1.15906,-0.05798 v -0.38903 -0.38904 h -1.4605 c -1.8802,0 -1.81835,0.03825 -1.86201,-1.142671 l -0.0273,-0.842805 h 1.47828 1.47832 v -0.395596 -0.39558 l -1.44942,-0.0219 -1.44947,-0.0219 v -1.04034 c 0,-0.76505 0.0273,-1.075021 0.10871,-1.171461 0.0945,-0.11365 0.31417,-0.131075 1.64798,-0.131075 h 1.53903 V 35.90468 35.518365 l -0.36882,-0.0492 c -0.20272,-0.0273 -0.96263,-0.0492 -1.68896,-0.0492 -1.1325,0 -1.35975,0.0219 -1.59717,0.147575 z"
         id="path5031"
         inkscape:connector-curvature="0" /><path
         style="fill:#100000;fill-opacity:1;stroke:none;stroke-width:0.02241434"
         d="m 794.64658,43.033568 c -0.0705,0.0438 -0.0956,0.20545 -0.0792,0.49503 l 0.0218,0.429476 h 0.35733 0.35735 l 0.0218,-0.383571 c 0.0109,-0.214745 -0.0164,-0.433295 -0.0689,-0.496675 -0.10271,-0.123985 -0.45077,-0.149115 -0.61491,-0.04365 z"
         id="path5029"
         inkscape:connector-curvature="0" /><path
         style="fill:#100000;fill-opacity:1;stroke:none;stroke-width:0.02241434"
         d="m 796.39389,43.033568 c -0.0705,0.0438 -0.0956,0.20545 -0.0792,0.49503 l 0.0218,0.429476 h 0.35733 0.35735 l 0.0218,-0.383571 c 0.0109,-0.214745 -0.0164,-0.433295 -0.0688,-0.496675 -0.10272,-0.123985 -0.45023,-0.149115 -0.61497,-0.04365 z"
         id="path5027"
         inkscape:connector-curvature="0" /><path
         style="fill:#919084;fill-opacity:1;stroke:none;stroke-width:0.02241434"
         d="m 805.82967,47.25398 c 0,0.786255 0.0163,1.429581 0.0329,1.429581 0.0163,0 0.52837,0.09068 1.1318,0.20107 7.19606,1.319155 13.34196,5.203412 18.47293,11.675235 2.24682,2.834031 4.3677,6.461553 5.53731,9.471039 l 0.43657,1.123981 6.01613,0.003 6.01616,0.003 V 58.493255 45.825599 h -18.82276 -18.82272 z"
         id="path5025"
         inkscape:connector-curvature="0" /><path
         style="fill:#004e9e;fill-opacity:1;stroke:none;stroke-width:0.02241434"
         d="m 858.16803,49.398346 v 0.794245 h 0.83395 0.83391 v -0.794245 -0.794185 h -0.83391 -0.83395 z"
         id="path5023"
         inkscape:connector-curvature="0" /><path
         style="fill:#004e9e;fill-opacity:1;stroke:none;stroke-width:0.02241434"
         d="m 805.75029,60.834921 v 10.403945 h 12.07082 12.07077 l -0.16339,-0.416896 c -1.42144,-3.634286 -3.30682,-6.706887 -6.17674,-10.066649 -4.35353,-5.096612 -9.33729,-8.371854 -14.90292,-9.793959 -1.102,-0.28193 -2.37604,-0.530001 -2.72016,-0.530556 l -0.17866,-2.6e-4 z"
         id="path5021"
         inkscape:connector-curvature="0" /><path
         style="fill:#fbb900;fill-opacity:1;stroke:none;stroke-width:0.02241434"
         d="m 805.83001,38.795691 v 5.281488 h 18.82277 18.82277 v -5.281488 -5.281562 h -18.82277 -18.82277 z"
         id="path5019"
         inkscape:connector-curvature="0" /><path
         style="fill:#ffffff;fill-opacity:1;stroke:none;stroke-width:0.02241434"
         d="m 816.31418,42.355672 c -1.3639,-0.0108 -2.11158,-0.416452 -2.45948,-1.346197 -0.2251,-0.602828 -0.34867,-1.754108 -0.28857,-2.70117 0.11904,-1.880805 0.59477,-2.65506 1.80176,-2.929687 0.67681,-0.15405 1.81212,-0.0977 2.38916,0.11865 1.03203,0.386302 1.41396,1.277332 1.41357,3.298829 -4.3e-4,2.760923 -0.65014,3.570825 -2.85644,3.559575 z m -0.10547,-1.081057 c 0.66584,0.06015 1.13765,-0.152355 1.39014,-0.625485 0.1732,-0.324555 0.1831,-0.429953 0.1831,-1.813478 0,-1.331662 -0.016,-1.49892 -0.16406,-1.78272 -0.25353,-0.482452 -0.50722,-0.630449 -1.12793,-0.657712 -0.33439,-0.0108 -0.62565,0.0153 -0.7793,0.08642 -0.13492,0.0612 -0.31981,0.206242 -0.41162,0.323737 -0.31418,0.399397 -0.37499,0.735952 -0.375,2.06982 0,1.197735 0.0107,1.29366 0.19776,1.664062 0.26227,0.518528 0.50473,0.682568 1.08691,0.735353 z"
         id="path5017"
         inkscape:connector-curvature="0" /><path
         style="fill:#ffffff;fill-opacity:1;stroke:none;stroke-width:0.02241434"
         d="m 809.6257,42.32637 c -0.63167,0.0077 -1.29208,-0.0067 -1.63183,-0.04687 l -0.41748,-0.0483 v -3.398438 -3.399899 l 0.21972,-0.03225 c 0.50214,-0.07602 3.21576,-0.0498 3.60938,0.03225 v -0.0015 c 0.5311,0.113655 0.95877,0.512347 1.09717,1.02393 0.13107,0.485212 0.0592,1.329592 -0.14942,1.760737 -0.17103,0.35352 -0.61855,0.691162 -0.93457,0.704595 -0.0956,0.006 -0.0649,0.03802 0.0894,0.08935 0.59376,0.207637 0.83459,0.656242 0.83203,1.5498 -0.004,1.055857 -0.32397,1.487287 -1.25244,1.681642 -0.22704,0.04755 -0.83025,0.07726 -1.46192,0.08496 z m -0.77783,-1.028318 h 0.79687 c 1.21796,0 1.50587,-0.184395 1.50587,-0.9624 0,-0.365527 -0.16919,-0.739522 -0.37354,-0.826177 -0.0776,-0.03285 -0.54444,-0.07786 -1.03564,-0.09961 l -0.89356,-0.0381 v 0.9624 z m 0,-2.758297 0.89502,-0.0381 c 1.06509,-0.0492 1.34866,-0.159083 1.48975,-0.585938 0.14048,-0.42564 0.0627,-1.114004 -0.15088,-1.327147 -0.15791,-0.157905 -0.26814,-0.17664 -1.2041,-0.200685 l -1.02979,-0.02782 v 1.08984 z"
         id="path5013"
         inkscape:connector-curvature="0" /><path
         style="fill:#ffffff;fill-opacity:1;stroke:none;stroke-width:0.02241434"
         d="m 821.69909,38.192521 c -0.0108,1.524711 -10e-4,2.758091 0.0219,2.740766 0.0219,-0.01635 0.0722,-0.11642 0.0984,-0.219645 0.0935,-0.371555 2.29022,-5.097092 2.41478,-5.194192 0.19671,-0.15359 1.48123,-0.133235 1.64012,0.0273 0.10933,0.10933 0.1246,0.53 0.1246,3.415116 v 3.290232 h -0.59568 -0.59563 v -2.755911 c 0,-1.540661 -0.0273,-2.722622 -0.0677,-2.680441 -0.0383,0.0438 -0.5784,1.20125 -1.20189,2.577231 -0.62361,1.37592 -1.20665,2.582156 -1.29583,2.680446 -0.14372,0.158995 -0.23823,0.178675 -0.83686,0.178675 -1.05263,0 -0.96538,0.320175 -0.96538,-3.546532 V 35.42189 h 0.6401 0.63999 z"
         id="path5007"
         inkscape:connector-curvature="0" /><path
         style="fill:#ffffff;fill-opacity:1;stroke:none;stroke-width:0.02241434"
         d="m 828.77122,38.203321 c -0.0163,1.743591 -10e-4,2.714261 0.0438,2.601041 0.47428,-1.171245 2.40675,-5.249042 2.515,-5.306962 0.0776,-0.04365 0.43548,-0.07541 0.7956,-0.07541 1.02843,0 0.94466,-0.31417 0.94466,3.546536 v 3.283712 h -0.64163 -0.64173 l 0.0218,-2.740046 c 0.0164,-1.507071 0.0108,-2.738702 -0.0108,-2.736947 -0.0218,0.0015 -0.55793,1.151906 -1.19137,2.555922 -0.63338,1.40396 -1.21664,2.635526 -1.29637,2.736821 -0.13231,0.167745 -0.20708,0.18414 -0.848,0.18414 -0.53382,0 -0.73353,-0.0273 -0.82823,-0.1246 -0.10933,-0.10933 -0.1246,-0.53 -0.1246,-3.415117 V 35.42209 h 0.64371 0.64376 z"
         id="path6519-6-6"
         inkscape:connector-curvature="0" /></g><g
       id="g84"
       transform="matrix(0.50000022,0,0,0.50000022,33.407389,28.886477)"><text
         transform="matrix(1,0,0,-1,126.0675,589.95752)"
         style="font-variant:normal;font-weight:normal;line-height:0%;font-family:'DejaVu Sans';-inkscape-font-specification:DejaVuSansCondensed;writing-mode:lr-tb;fill:#000000;fill-opacity:1;fill-rule:nonzero;stroke:none"
         id="text86"><tspan
           x="0"
           sodipodi:role="line"
           id="tspan88"
           y="0"
           style="font-size:22.43999863px;line-height:1.25">21. bis 24. Mrz 2018 in Bonn</tspan></text>
</g><g
       id="g90" /><g
       id="g4247"
       transform="matrix(0,-0.44318768,0.44318768,0,-31.356942,349.70096)" /><g
       id="g4759"
       transform="matrix(0,-0.44318768,0.44318768,0,-31.356942,349.70096)" /><path
       inkscape:connector-curvature="0"
       d="m 28.346432,477.63731 0,-14.17321"
       id="path4591"
       style="fill:none;stroke:#000000;stroke-width:0.7999993px;stroke-linecap:butt;stroke-linejoin:miter;stroke-opacity:1" /><path
       inkscape:connector-curvature="0"
       d="M 4.5155517e-7,449.29088 14.173216,449.29088"
       id="path4593"
       style="fill:none;stroke:#000000;stroke-width:0.7999993px;stroke-linecap:butt;stroke-linejoin:miter;stroke-opacity:1" /><path
       inkscape:connector-curvature="0"
       d="m 325.98396,477.63731 0,-14.17321"
       id="path4595-2"
       style="fill:none;stroke:#000000;stroke-width:0.7999993px;stroke-linecap:butt;stroke-linejoin:miter;stroke-opacity:1" /><path
       inkscape:connector-curvature="0"
       d="m 354.3304,449.29088 -14.17322,0"
       id="path4597-5"
       style="fill:none;stroke:#000000;stroke-width:0.7999993px;stroke-linecap:butt;stroke-linejoin:miter;stroke-opacity:1" /><path
       inkscape:connector-curvature="0"
       d="m 325.98396,-5.809646e-5 0,14.17321109646"
       id="path4601"
       style="fill:none;stroke:#000000;stroke-width:0.7999993px;stroke-linecap:butt;stroke-linejoin:miter;stroke-opacity:1" /><path
       inkscape:connector-curvature="0"
       d="m 340.15718,28.346389 14.17322,-1.6e-5"
       id="path4603"
       style="fill:none;stroke:#000000;stroke-width:0.7999993px;stroke-linecap:butt;stroke-linejoin:miter;stroke-opacity:1" /><path
       inkscape:connector-curvature="0"
       d="m 28.346432,14.173169 0,-14.17322709646"
       id="path4605-2"
       style="fill:none;stroke:#000000;stroke-width:0.7999993px;stroke-linecap:butt;stroke-linejoin:miter;stroke-opacity:1" /><path
       inkscape:connector-curvature="0"
       d="M 14.173216,28.346389 4.5155517e-7,28.346373"
       id="path4607-3"
       style="fill:none;stroke:#000000;stroke-width:0.7999993px;stroke-linecap:butt;stroke-linejoin:miter;stroke-opacity:1" /><g
       id="g4382"
       transform="matrix(0.97468411,0,0,0.97468411,318.42134,91.801302)"><g
         transform="matrix(0.00421305,0,0,-0.00421305,-272.96885,350.40546)"
         id="g51"
         style="visibility:visible"><g
           style="fill:#ee7f00;stroke:none"
           id="g53"><path
             d="m 8500,16000 -7500,0 0,-15000 15000,0 0,15000 -7500,0 z"
             id="path55"
             inkscape:connector-curvature="0" /></g><g
           style="fill:none;stroke:none"
           id="g57"><rect
             x="1000"
             y="1000"
             width="15001"
             height="15001"
             id="rect59" /></g></g><g
         transform="matrix(0.00421305,0,0,-0.00421305,-272.96885,350.40546)"
         id="g63"
         style="visibility:visible"><g
           style="fill:#ffffff;stroke:none"
           id="g65"><path
             d="m 6500,9250 -4750,0 0,-7500 9500,0 0,7500 -4750,0 z"
             id="path67"
             inkscape:connector-curvature="0" /></g><g
           style="fill:none;stroke:none"
           id="g69"><rect
             x="1750"
             y="1750"
             width="9501"
             height="7501"
             id="rect71" /></g></g><g
         transform="matrix(0.00421305,0,0,-0.00421305,-272.96885,350.40546)"
         id="g75"
         style="visibility:visible"><g
           style="fill:none;stroke:none"
           id="g77"><rect
             x="1947"
             y="3569"
             width="9100"
             height="4354"
             id="rect79" /></g><g
           style="font-weight:700;font-size:3528px;font-family:'Droid Sans embedded'"
           id="g81"><g
             style="fill:#ee7f00;stroke:none"
             id="g83"><text
               id="text85"
               style="font-size:3821.18530273px;line-height:0%;stroke-width:1.08310246"
               x="2394.9783"
               y="6820.3677"><tspan
                 id="tspan87"
                 style="font-style:normal;font-variant:normal;font-weight:bold;font-stretch:normal;font-family:'Droid Sans';-inkscape-font-specification:'Droid Sans Bold';stroke-width:1.08310246">2018</tspan></text>
</g></g></g><g
         transform="matrix(0.00421305,0,0,-0.00421305,-272.96885,350.40546)"
         id="g91"
         style="visibility:visible"><g
           style="fill:none;stroke:none"
           id="g93"><rect
             x="1113"
             y="10650"
             width="14837"
             height="5836"
             id="rect95" /></g><g
           style="font-weight:700;font-size:4798px;font-family:'Droid Sans embedded'"
           id="g97"><g
             style="fill:#ffffff;stroke:none"
             id="g99"><text
               id="text101"
               style="line-height:0%"><tspan
                 id="tspan103"
                 y="15228"
                 x="1363 4707 9313 12505">FOSS</tspan></text>
</g></g></g><g
         transform="matrix(0.00421305,0,0,-0.00421305,-272.96885,350.40546)"
         id="g107"
         style="visibility:visible"><g
           style="fill:none;stroke:none"
           id="g109"><rect
             x="11597"
             y="794"
             width="3974"
             height="5836"
             id="rect111" /></g><g
           style="font-weight:700;font-size:4798px;font-family:'Droid Sans embedded'"
           id="g113"><g
             style="fill:#ffffff;stroke:none"
             id="g115"><text
               id="text117"
               style="line-height:0%"><tspan
                 x="11847"
                 y="5372"
                 id="tspan119">G</tspan></text>
</g></g></g><g
         transform="matrix(0.00421305,0,0,-0.00421305,-272.96885,350.40546)"
         id="g123"
         style="visibility:visible"><g
           style="fill:none;stroke:none"
           id="g125"><rect
             x="12842"
             y="5672"
             width="3003"
             height="5836"
             id="rect127" /></g><g
           style="font-weight:700;font-size:4798px;font-family:'Droid Sans embedded'"
           id="g129"><g
             style="fill:#ffffff;stroke:none"
             id="g131"><text
               id="text133"
               style="line-height:0%"><tspan
                 x="13092"
                 y="10250"
                 id="tspan135">I</tspan></text>
</g></g></g></g><image
       sodipodi:absref="/home/michael/Dokumente/OSM/FOSSGIS/fossgis2018/booklet/wallpaper/../images_raw/wordcloud-open.png"
       xlink:href="../images_raw/wordcloud-open.png"
       transform="scale(1,-1)"
       width="247.94485"
       height="156.19522"
       preserveAspectRatio="none"
       id="image4783"
       x="56.279064"
       y="-301.84198" /><path
       style="color:#000000;font-style:normal;font-variant:normal;font-weight:normal;font-stretch:normal;font-size:medium;line-height:normal;font-family:sans-serif;text-indent:0;text-align:start;text-decoration:none;text-decoration-line:none;text-decoration-style:solid;text-decoration-color:#000000;letter-spacing:normal;word-spacing:normal;text-transform:none;writing-mode:lr-tb;direction:ltr;baseline-shift:baseline;text-anchor:start;white-space:normal;clip-rule:nonzero;display:inline;overflow:visible;visibility:visible;opacity:1;isolation:auto;mix-blend-mode:normal;color-interpolation:sRGB;color-interpolation-filters:linearRGB;solid-color:#000000;solid-opacity:1;fill:#000000;fill-opacity:1;fill-rule:nonzero;stroke:none;stroke-width:1.15018892;stroke-linecap:round;stroke-linejoin:round;stroke-miterlimit:4;stroke-dasharray:none;stroke-dashoffset:0;stroke-opacity:1;color-rendering:auto;image-rendering:auto;shape-rendering:auto;text-rendering:auto;enable-background:accumulate"
       d="m 47.911455,136.86 c -4.49422,0 -9.17448,-0.1088 -13.52358,-0.034 -0.32024,0.01 -0.58344,-0.2517 -0.58523,-0.572 l -0.14807,-49.725829 -23.39978,-0.0901 c -0.31197,-0.007 -0.56146,-0.26216 -0.56172,-0.57423 l 0,-68.668684 332.166755,-0.0799 0,71.036174 c 5.2e-4,0.21423 -44.53081,0.41098 -44.72038,0.51082 -9.43707,4.94608 -17.99834,7.03474 -26.27394,7.06337 -8.53827,0.0296 -16.7598,-2.12724 -25.34472,-5.53805 -0.18846,-0.0753 -0.32338,-0.24452 -0.35491,-0.445 l 0.009,2.20771 0.15042,0.44499 c 0.0392,0.11473 0.0411,0.23903 0.006,0.35491 l -0.90488,2.91748 c -0.0796,0.25495 -0.32436,0.4219 -0.5907,0.40268 l -0.78108,-0.0587 c -0.0356,-0.002 -0.0711,-0.007 -0.10578,-0.0157 l -0.011,0.82574 0.10573,0.33609 0.16691,0.28592 c 0.11355,0.1935 0.10456,0.43553 -0.0235,0.61972 l -0.69648,0.99806 -0.89233,4.286179 -0.10028,1.523 c -0.0459,0.70552 -1.07823,0.72172 -1.1469,0.018 l -0.15042,-1.51438 -0.38154,-1.8481 c -0.28317,0.48446 -1.02129,0.31856 -1.06938,-0.24051 l -0.10341,-1.299739 -0.77328,-3.91321 -0.27264,-0.4395 -16.36427,-0.94564 c -0.11074,-0.006 -0.21736,-0.0431 -0.30712,-0.10809 l -0.1692,-0.12455 -0.0846,5.48009 0.1191,0.206819 c 0.0604,0.10308 0.0874,0.22253 0.0768,0.34158 l -0.30477,3.31467 c -0.008,0.0841 -0.034,0.16534 -0.0768,0.23818 l -0.14573,0.24601 -2.88535,19.39852 -0.25695,2.60488 c -0.0713,0.70421 -1.10424,0.68305 -1.14621,-0.0235 l -0.15117,-2.64484 -2.69265,-18.99896 c -0.0798,-0.0804 -0.13389,-0.18259 -0.15591,-0.29382 l -0.65652,-3.31466 c -0.03,-0.15062 7.5e-4,-0.30677 0.087,-0.43404 l 0.15906,-0.23582 v -7.272559 l -0.27815,-0.30709 -4.79458,-0.29382 -0.0369,1.03023 -0.10577,-0.0744 c 0.254,0.17549 0.3243,0.52028 0.15905,0.78105 l -0.8265,1.30756 -1.04588,5.446399 -0.0525,1.05606 c -0.0395,0.73067 -1.12008,0.72333 -1.14928,-0.008 l -0.0369,-1.00592 -0.95894,-5.443269 -0.26164,-0.24681 -0.0157,0.39249 -0.0478,-0.0321 c 0.26165,0.17991 0.32783,0.53814 0.14805,0.79987 l -1.01142,1.4666 -1.31538,6.324599 -0.10887,1.45641 -0.002,0.0525 c -0.0485,0.73649 -1.1415,0.70668 -1.14928,-0.0313 l -0.0188,-1.04351 -1.08036,-6.454679 -1.05606,-0.87355 c -0.24513,-0.20421 -0.27701,-0.56855 -0.0713,-0.81242 l 0.0689,-0.0822 -0.26482,-10.02089 h -0.7466 l 0.0314,2.69266 c 0.004,0.24696 -0.15094,0.46866 -0.38386,0.55077 l -13.28779,4.63321 -0.27809,2.90653 c -0.0144,0.15604 -0.0914,0.29956 -0.21387,0.39719 l -1.67579,1.324 c -0.10381,0.0823 -0.23336,0.12639 -0.36585,0.12455 l -5.27406,-0.0721 0.0478,0.94796 c 0.0162,0.326389 -0.24202,0.601079 -0.56878,0.604039 l -6.3544,0.0399 c -0.32449,8.3e-4 -0.58521,-0.26634 -0.5766,-0.59072 l 0.0212,-0.842189 -1.46423,0.029 c -0.29605,0.006 -0.54853,-0.21355 -0.58287,-0.50765 l -1.18611,-10.31466 -3.88347,0.087 -0.009,0.6675 0.4771,0.46533 c 0.25496,0.25138 0.22012,0.67215 -0.0721,0.87901 l -0.738,0.52726 -0.58836,1.4086 c 0.21997,0.33245 0.0435,0.78198 -0.34392,0.87588 l -0.91035,0.2225 -5.89608,2.74279 c -0.078,0.036 -0.16328,0.0545 -0.24915,0.0533 l -3.74636,-0.0322 -0.0447,3.10316 c 0.098,0.0626 0.22296,0.17224 0.29066,0.16141 0.10887,-0.0174 0.35685,-0.18002 0.80772,-0.21468 0.33454,-0.0259 0.62031,0.23951 0.61968,0.57504 -4.2e-4,0.183029 -0.0739,0.389159 -0.14024,0.495939 0.0112,0.0501 0.0309,0.23578 0.16923,0.64239 0.065,0.19233 0.0242,0.40456 -0.10812,0.5586 -0.36025,0.42089 -0.90471,0.51503 -1.29736,0.48963 -0.15465,-0.0101 -0.23649,-0.0275 -0.36821,-0.0478 -0.0164,0.0398 0.0107,0.0913 -0.0133,0.12218 -0.24588,0.31809 -0.42177,0.25559 -0.56407,0.25387 -0.14231,-0.002 -0.31203,0.0526 -0.55076,-0.257 -0.0896,-0.11625 -0.0733,-0.30778 -0.0556,-0.47083 l -0.0133,0.0259 -0.002,-0.15042 c 0.003,-0.009 -0.006,-0.0238 -0.002,-0.0322 5.3e-4,-0.002 0.002,-7.5e-4 0.002,-0.002 l -0.0556,-5.255219 -3.63198,-0.029 c -0.0892,-1.2e-4 -0.17724,-0.0212 -0.25696,-0.0611 l -5.46756,-2.77725 -0.77559,-0.1935 c -0.3426,-0.085 -0.52844,-0.45567 -0.39173,-0.7811 l 0.0345,-0.0791 -0.49278,-1.50892 -0.37056,-0.21464 v 0.95341 c -2.5e-4,0.21965 -0.12537,0.42001 -0.32277,0.51632 -1.51216,0.74107 -2.05564,1.45637 -2.35342,2.20771 -0.29781,0.75129 -0.30845,1.61633 -0.56721,2.58375 -0.0704,0.25832 -0.30908,0.43416 -0.5766,0.42381 l -0.34706,-0.0133 -0.0188,0.445 c -0.01,0.25731 -0.18921,0.47685 -0.43952,0.53742 l 0.0611,-0.0133 -0.0314,2.202239 0.24599,0.33373 c 0.21766,0.29442 0.10863,0.71451 -0.22484,0.86568 l -0.10107,0.0455 c -0.0157,0.32286 -0.002,0.6476 -0.16921,0.97379 -0.13845,0.27064 -0.54005,0.31516 -0.86021,0.45049 v 0.40267 c -4e-4,0.0347 -0.004,0.0686 -0.011,0.10261 -0.0355,0.19706 -0.11615,0.40508 -0.30477,0.56172 -0.18861,0.15668 -0.46449,0.19767 -0.65886,0.15042 -0.38874,-0.0945 -0.61271,-0.34147 -0.65886,-0.7466 -0.002,-0.022 -0.004,-0.0437 -0.003,-0.0659 v -0.30159 c -0.29141,-0.0832 -0.6177,-0.0802 -0.81555,-0.3369 -0.24749,-0.32101 -0.21177,-0.79113 -0.19821,-1.25192 l -0.32043,-0.20682 c -0.27792,-0.17806 -0.34899,-0.55254 -0.1559,-0.82025 l 0.21152,-0.29377 -0.029,-2.449019 -0.46849,-0.27263 c -0.16301,-0.0953 -0.26921,-0.26459 -0.2836,-0.45283 l -0.0744,-0.96364 c -0.18886,-2.34709 -0.84012,-3.08799 -1.60917,-3.77535 -0.0229,0.18709 -0.11071,0.34243 -0.10106,0.54764 0.0146,0.32331 -0.24049,0.5949 -0.56407,0.60088 l -0.16139,0.003 -0.0102,0.36273 c -0.004,0.15804 -0.0728,0.30726 -0.19037,0.41287 l -0.0369,1.81915 0.24365,0.30159 c 0.21279,0.26538 0.14956,0.65671 -0.13554,0.84218 l -0.10811,0.0713 c -0.0261,0.28945 -0.02,0.58551 -0.20134,0.84455 -0.15044,0.21476 -0.46426,0.2438 -0.7231,0.34705 l -0.002,0.25619 -0.003,-0.0658 c 0.0467,0.43349 -0.30582,0.90344 -0.75132,0.92132 -0.22274,0.009 -0.46712,-0.0934 -0.6197,-0.27813 -0.15198,-0.18403 -0.20169,-0.41776 -0.18802,-0.62987 6e-5,-8.3e-4 -6e-5,-0.002 0,-0.003 l 0.008,-0.22486 c -0.24176,-0.10863 -0.5381,-0.14945 -0.67767,-0.35956 -0.16898,-0.25439 -0.13536,-0.53585 -0.1379,-0.81085 l -0.36507,-0.46851 c -0.18111,-0.23 -0.16048,-0.55884 0.0478,-0.76465 l 0.20917,-0.20681 -0.0345,-2.54144 -0.36507,-0.15904 c -0.21271,-0.0932 -0.34902,-0.30521 -0.34471,-0.53742 0.0122,-0.65378 -0.28355,-1.20114 -0.57191,-1.73138 l -15.92713,-0.0901 c -0.30759,0.5987 -0.54024,1.18341 -0.56408,1.80346 -0.007,0.18371 -0.1012,0.35273 -0.25383,0.45518 l -0.20917,0.14023 -0.006,0.43718 c -7.5e-4,0.1422 -0.0552,0.27898 -0.1512,0.38386 l -0.0447,0.0502 -0.029,2.01421 0.19272,0.24676 c 0.18621,0.23742 0.1577,0.57841 -0.0658,0.7811 l -0.15354,0.13709 c -0.0272,0.18913 -0.0332,0.41601 -0.15905,0.72859 -0.0776,0.19266 -0.21648,0.40974 -0.4395,0.56092 -0.0607,0.0411 -0.14589,0.0299 -0.21387,0.0587 l -0.003,0.25619 c 9e-5,0.006 9e-5,0.0126 0,0.0187 -0.008,0.19241 -0.0686,0.39682 -0.21466,0.56096 -0.14607,0.16414 -0.37917,0.26401 -0.60089,0.24913 -0.295416,-0.0199 -0.361706,-0.33052 -0.473976,-0.5821 l -0.10811,21.057839 c -7.5e-4,0.24609 -0.15843,0.46446 -0.39172,0.54291 l -2.427859,0.80769 c -0.1077,0.0364 -0.22393,0.0397 -0.33373,0.0102 l -2.02046,-0.55623 c -0.25054,-0.0684 -0.42358,-0.29574 -0.42306,-0.55546 v -4.40835 l -0.38702,0.0133 0.0211,0.42386 c 0.009,0.18083 -0.0669,0.35499 -0.20604,0.47084 l -0.91113,0.75991 c -0.10344,0.0858 -0.23305,0.13261 -0.36743,0.13241 h -2.96293 v 2.96292 c -3.1e-4,0.31407 -0.25238,0.56959 -0.56642,0.57424 l -15.36316,0.25386 c -0.31214,0.004 -0.57027,-0.24119 -0.58208,-0.55309 l -0.13006,-3.12903 -3.48391,0.0423 c -0.32128,0.004 -0.58324,-0.25607 -0.58209,-0.57737 l 0.16327,-35.911359 h -1.34394 l -0.34941,52.340949 c -8e-4,0.2145 -0.12184,0.4106 -0.31259,0.5085 -4.22643,2.1818 -11.17958,2.4661 -18.66992,2.4733 z m 81.547265,-36.28854 h 7.5e-4 c 0.49722,0.006 0.99801,-0.28518 0.9879,-0.881369 l 0.007,-1.64205 c 0.002,-0.31848 -0.25654,-0.57734 -0.57504,-0.5774 h -0.80535 c -0.31665,5e-5 -0.57369,0.25603 -0.57505,0.57267 l -0.006,1.62721 c -0.0237,0.591479 0.46894,0.894889 0.96595,0.900939 z m -7.38149,-4.187449 c 0.19796,0.01 0.40693,-0.029 0.60481,-0.1708 0.19792,-0.14179 0.35344,-0.42755 0.34862,-0.69878 l -0.007,-1.50262 c -7.5e-4,-0.31879 -0.26095,-0.57602 -0.57974,-0.57348 l -0.71213,0.007 c -0.31912,0.003 -0.57474,0.26537 -0.56956,0.58447 l 0.025,1.46656 v -0.0329 c -0.011,0.27011 0.12597,0.54776 0.30789,0.69959 0.18189,0.15186 0.38414,0.21143 0.58209,0.22093 z m -22.04808,-0.16606 c 0.19795,0.01 0.40693,-0.0298 0.6048,-0.1716 0.19788,-0.14176 0.35266,-0.42763 0.34785,-0.69882 l -0.007,-1.50262 c -0.002,-0.31879 -0.26175,-0.57566 -0.58052,-0.57268 l -0.711356,0.006 c -0.31912,0.003 -0.57473,0.26537 -0.56955,0.58447 l 0.0243,1.46736 7.5e-4,-0.033 c -0.011,0.27007 0.12599,0.54696 0.30789,0.69883 0.1819,0.15189 0.38413,0.21219 0.582086,0.22173 z"
       id="path5127-3"
       inkscape:connector-curvature="0"
       sodipodi:nodetypes="ccccccccccccccccccccccccccccccccccccccccccccccccccccccccccccccccccccccccccccccccccccccccccccccccccccccccccccccccccccccccccccccccccccccccccccccccccccccccccccccccccccccccccccccccccccccccccccccccccccccccccccccccccccccccccccccccccccccccccccccccccccccccccccccccccccccccccccccc" /></g></svg>